<mxfile host="app.diagrams.net" modified="2024-05-14T09:21:56.231Z" agent="Mozilla/5.0 (Windows NT 10.0; Win64; x64) AppleWebKit/537.36 (KHTML, like Gecko) Chrome/124.0.0.0 Safari/537.36" etag="OeOB0ljqczave8JLXi75" version="24.3.1" type="github">
  <diagram name="Page-1" id="4506VtBw8nRbCUj4wvkZ">
    <mxGraphModel dx="4557" dy="1830" grid="1" gridSize="10" guides="1" tooltips="1" connect="1" arrows="1" fold="1" page="1" pageScale="1" pageWidth="1100" pageHeight="850" math="0" shadow="0">
      <root>
        <mxCell id="0" />
        <mxCell id="1" parent="0" />
        <mxCell id="CkvI0cMK4T_Tbto0kPHf-16" value="" style="rounded=0;whiteSpace=wrap;html=1;fillColor=none;dashed=1;" parent="1" vertex="1">
          <mxGeometry x="100" y="1200" width="2000" height="910" as="geometry" />
        </mxCell>
        <mxCell id="CkvI0cMK4T_Tbto0kPHf-17" value="" style="rounded=0;whiteSpace=wrap;html=1;fillColor=none;dashed=1;glass=0;" parent="1" vertex="1">
          <mxGeometry x="158" y="1300" width="1862" height="580" as="geometry" />
        </mxCell>
        <mxCell id="sJAkSyZmvU-YgBx9wPWd-3" value="" style="rounded=0;whiteSpace=wrap;html=1;fillColor=none;dashed=1;" parent="1" vertex="1">
          <mxGeometry x="100" y="200" width="2000" height="910" as="geometry" />
        </mxCell>
        <mxCell id="CkvI0cMK4T_Tbto0kPHf-1" value="" style="rounded=0;whiteSpace=wrap;html=1;fillColor=none;dashed=1;glass=0;" parent="1" vertex="1">
          <mxGeometry x="158" y="300" width="1852" height="570" as="geometry" />
        </mxCell>
        <mxCell id="XdyKfdpSOrHMwj-g5sN_-38" style="edgeStyle=orthogonalEdgeStyle;rounded=0;orthogonalLoop=1;jettySize=auto;html=1;fontSize=13;spacing=2;strokeWidth=3;" parent="1" source="uV-PD8PnXa-rE1P_8Z7f-1" target="XdyKfdpSOrHMwj-g5sN_-37" edge="1">
          <mxGeometry relative="1" as="geometry" />
        </mxCell>
        <mxCell id="XdyKfdpSOrHMwj-g5sN_-36" value="Customer portal" style="image;aspect=fixed;html=1;points=[];align=center;fontSize=12;image=img/lib/azure2/app_services/App_Service_Domains.svg;" parent="1" vertex="1">
          <mxGeometry x="210" y="570" width="68" height="55.00000000000001" as="geometry" />
        </mxCell>
        <mxCell id="XdyKfdpSOrHMwj-g5sN_-42" style="edgeStyle=orthogonalEdgeStyle;rounded=0;orthogonalLoop=1;jettySize=auto;html=1;fontSize=13;spacing=2;endSize=8;strokeWidth=3;" parent="1" source="XdyKfdpSOrHMwj-g5sN_-37" target="XdyKfdpSOrHMwj-g5sN_-41" edge="1">
          <mxGeometry relative="1" as="geometry" />
        </mxCell>
        <mxCell id="XdyKfdpSOrHMwj-g5sN_-54" value="POST" style="edgeLabel;html=1;align=center;verticalAlign=middle;resizable=0;points=[];fontSize=15;" parent="XdyKfdpSOrHMwj-g5sN_-42" vertex="1" connectable="0">
          <mxGeometry x="-0.2535" relative="1" as="geometry">
            <mxPoint x="14" as="offset" />
          </mxGeometry>
        </mxCell>
        <mxCell id="XdyKfdpSOrHMwj-g5sN_-48" value="POST" style="rounded=0;orthogonalLoop=1;jettySize=auto;html=1;startArrow=none;startFill=0;fontSize=13;spacing=2;strokeWidth=3;endArrow=classic;endFill=1;strokeColor=#FF9999;entryX=-0.108;entryY=0.524;entryDx=0;entryDy=0;entryPerimeter=0;" parent="1" source="XdyKfdpSOrHMwj-g5sN_-37" target="dqcT2QglrnnVANuXZ98A-1" edge="1">
          <mxGeometry relative="1" as="geometry">
            <mxPoint x="810" y="790" as="targetPoint" />
          </mxGeometry>
        </mxCell>
        <mxCell id="OyM6UBOEfM9r7jYbPxVr-1" value="&lt;font style=&quot;font-size: 14px;&quot;&gt;GET&lt;/font&gt;" style="rounded=0;orthogonalLoop=1;jettySize=auto;html=1;strokeWidth=3;endArrow=classic;endFill=1;startArrow=none;startFill=0;entryX=-0.064;entryY=0.584;entryDx=0;entryDy=0;entryPerimeter=0;" parent="1" target="sJAkSyZmvU-YgBx9wPWd-7" edge="1">
          <mxGeometry x="0.0015" relative="1" as="geometry">
            <mxPoint x="623" y="582.7627944572749" as="sourcePoint" />
            <mxPoint x="988" y="449.99720554272517" as="targetPoint" />
            <mxPoint as="offset" />
          </mxGeometry>
        </mxCell>
        <mxCell id="OyM6UBOEfM9r7jYbPxVr-3" value="&lt;font style=&quot;font-size: 14px;&quot;&gt;GET&lt;/font&gt;" style="rounded=0;orthogonalLoop=1;jettySize=auto;html=1;strokeWidth=3;" parent="1" source="XdyKfdpSOrHMwj-g5sN_-37" edge="1">
          <mxGeometry relative="1" as="geometry">
            <mxPoint x="690" y="430" as="targetPoint" />
          </mxGeometry>
        </mxCell>
        <mxCell id="OyM6UBOEfM9r7jYbPxVr-4" value="&lt;font style=&quot;font-size: 14px;&quot;&gt;POST, PUT&lt;/font&gt;" style="rounded=0;orthogonalLoop=1;jettySize=auto;html=1;strokeWidth=3;" parent="1" source="XdyKfdpSOrHMwj-g5sN_-37" edge="1">
          <mxGeometry relative="1" as="geometry">
            <mxPoint x="510" y="430" as="targetPoint" />
          </mxGeometry>
        </mxCell>
        <mxCell id="XdyKfdpSOrHMwj-g5sN_-49" value="POST" style="rounded=0;orthogonalLoop=1;jettySize=auto;html=1;fontSize=13;spacing=2;strokeWidth=3;strokeColor=#FF9999;" parent="1" source="XdyKfdpSOrHMwj-g5sN_-41" edge="1">
          <mxGeometry relative="1" as="geometry">
            <mxPoint x="1021" y="770" as="targetPoint" />
          </mxGeometry>
        </mxCell>
        <mxCell id="XdyKfdpSOrHMwj-g5sN_-51" style="edgeStyle=orthogonalEdgeStyle;rounded=0;orthogonalLoop=1;jettySize=auto;html=1;fontSize=13;spacing=2;strokeWidth=3;strokeColor=#CCCCCC;" parent="1" source="XdyKfdpSOrHMwj-g5sN_-41" target="XdyKfdpSOrHMwj-g5sN_-50" edge="1">
          <mxGeometry relative="1" as="geometry" />
        </mxCell>
        <mxCell id="XdyKfdpSOrHMwj-g5sN_-55" value="POST" style="edgeLabel;html=1;align=center;verticalAlign=middle;resizable=0;points=[];fontSize=15;spacing=2;" parent="XdyKfdpSOrHMwj-g5sN_-51" vertex="1" connectable="0">
          <mxGeometry x="0.0714" y="1" relative="1" as="geometry">
            <mxPoint x="-5" y="1" as="offset" />
          </mxGeometry>
        </mxCell>
        <mxCell id="XdyKfdpSOrHMwj-g5sN_-41" value="Onboarding pipeline" style="image;sketch=0;aspect=fixed;html=1;points=[];align=center;fontSize=12;image=img/lib/mscae/Azure_Pipelines.svg;" parent="1" vertex="1">
          <mxGeometry x="997" y="572.5" width="50" height="50" as="geometry" />
        </mxCell>
        <mxCell id="XdyKfdpSOrHMwj-g5sN_-52" value="POST" style="rounded=0;orthogonalLoop=1;jettySize=auto;html=1;fontSize=13;spacing=2;strokeWidth=3;strokeColor=#CCCCCC;entryX=1.069;entryY=0.543;entryDx=0;entryDy=0;entryPerimeter=0;" parent="1" source="XdyKfdpSOrHMwj-g5sN_-50" target="dqcT2QglrnnVANuXZ98A-1" edge="1">
          <mxGeometry relative="1" as="geometry">
            <mxPoint x="1270" y="770" as="targetPoint" />
          </mxGeometry>
        </mxCell>
        <mxCell id="cUhqmq1oyccgOWpyn-yy-2" value="&lt;font style=&quot;font-size: 15px;&quot;&gt;POST&lt;/font&gt;" style="edgeStyle=orthogonalEdgeStyle;rounded=0;orthogonalLoop=1;jettySize=auto;html=1;fontSize=13;spacing=2;strokeWidth=3;strokeColor=#CCCCCC;" parent="1" source="XdyKfdpSOrHMwj-g5sN_-50" target="cUhqmq1oyccgOWpyn-yy-1" edge="1">
          <mxGeometry relative="1" as="geometry" />
        </mxCell>
        <mxCell id="sJAkSyZmvU-YgBx9wPWd-18" style="rounded=0;orthogonalLoop=1;jettySize=auto;html=1;strokeWidth=3;entryX=1.059;entryY=0.853;entryDx=0;entryDy=0;entryPerimeter=0;startArrow=none;startFill=0;endArrow=classic;endFill=1;strokeColor=#CCCCCC;" parent="1" source="XdyKfdpSOrHMwj-g5sN_-50" target="sJAkSyZmvU-YgBx9wPWd-7" edge="1">
          <mxGeometry relative="1" as="geometry">
            <mxPoint x="835" y="244" as="targetPoint" />
          </mxGeometry>
        </mxCell>
        <mxCell id="sJAkSyZmvU-YgBx9wPWd-20" value="&lt;font style=&quot;font-size: 14px;&quot;&gt;GET&lt;/font&gt;" style="edgeLabel;html=1;align=center;verticalAlign=middle;resizable=0;points=[];" parent="sJAkSyZmvU-YgBx9wPWd-18" vertex="1" connectable="0">
          <mxGeometry x="0.0312" y="4" relative="1" as="geometry">
            <mxPoint as="offset" />
          </mxGeometry>
        </mxCell>
        <mxCell id="tw3CjWlPFAVfij_czGE9-4" style="edgeStyle=orthogonalEdgeStyle;rounded=0;orthogonalLoop=1;jettySize=auto;html=1;strokeWidth=3;strokeColor=#CCCCCC;" parent="1" source="XdyKfdpSOrHMwj-g5sN_-50" edge="1">
          <mxGeometry relative="1" as="geometry">
            <mxPoint x="1489" y="410" as="targetPoint" />
          </mxGeometry>
        </mxCell>
        <mxCell id="tw3CjWlPFAVfij_czGE9-6" value="&lt;font style=&quot;font-size: 14px;&quot;&gt;POST&lt;/font&gt;" style="edgeLabel;html=1;align=center;verticalAlign=middle;resizable=0;points=[];" parent="tw3CjWlPFAVfij_czGE9-4" vertex="1" connectable="0">
          <mxGeometry x="-0.0045" y="1" relative="1" as="geometry">
            <mxPoint as="offset" />
          </mxGeometry>
        </mxCell>
        <mxCell id="1Wst31fFW4pV4mZe_Re4-1" value="Reassure&lt;div&gt;(Core API)&lt;/div&gt;" style="image;aspect=fixed;html=1;points=[];align=center;fontSize=12;image=img/lib/azure2/app_services/App_Service_Domains.svg;" parent="1" vertex="1">
          <mxGeometry x="677" y="330" width="68" height="55.00000000000001" as="geometry" />
        </mxCell>
        <mxCell id="cUhqmq1oyccgOWpyn-yy-1" value="Logic App&lt;div&gt;Communication&lt;/div&gt;" style="image;aspect=fixed;html=1;points=[];align=center;fontSize=12;image=img/lib/azure2/internet_of_things/Logic_Apps.svg;imageBackground=none;imageBorder=none;shadow=0;" parent="1" vertex="1">
          <mxGeometry x="1835" y="563.5" width="68" height="68" as="geometry" />
        </mxCell>
        <mxCell id="sJAkSyZmvU-YgBx9wPWd-4" value="&lt;span style=&quot;font-size: 17px;&quot;&gt;&lt;b&gt;Intercept Automation tenant&lt;/b&gt;&lt;/span&gt;" style="text;html=1;align=left;verticalAlign=middle;resizable=0;points=[];autosize=1;strokeColor=none;fillColor=none;" parent="1" vertex="1">
          <mxGeometry x="100" y="200" width="250" height="30" as="geometry" />
        </mxCell>
        <mxCell id="sJAkSyZmvU-YgBx9wPWd-6" value="PasswordState&#xa;(DEV)" style="shape=image;verticalLabelPosition=bottom;labelBackgroundColor=default;verticalAlign=top;aspect=fixed;imageAspect=0;image=data:image/png,iVBORw0KGgoAAAANSUhEUgAAAIAAAACACAMAAAD04JH5AAAAjVBMVEU1Nz3///80Nj0AAAAuMDYlJy5DRUrp6erNzc8YGiEiJCsqLDIwMjj09PRNTlQZGyJnaG0dHyXHyMkhJCrd3d6Wl5q2t7mcnaBsbnKjpKdYWV5FR02xsrR2d3uQkZU9P0Tv7/CIiYxfYGWAgYXi4uOrrK4AAAjMzM4JDBPV1td7fIG+vsBRUldVVVUqKirMa5XTAAAGH0lEQVR4nO2bW1ujMBCGSQQVCCDFU63aelqtdff//7zlWGZCzkTZi52LvdhHkrd8k5nJJAQnrQVBQH/UAhr0Mzf/0GAZGwAWmr4jCJacvyEIFp0/oEsD1NMv5YD/zc2i0PeI1MYHaHi38U5gY2F4+VJ4HtNqDZR35L5gCwLEN2S3jZYDSNklIQ/xcgDFLSHkuvSrgQUAKw81gG8NLACS06wG8K2BOQCNn5r5fWtgDhBG5y3A7tSrBuYA5TPpzK8GxgC0DgKd3XvVwBggCs56AL8aGAPEt4R8hwamAF0QIP7XgSlAlR/nJ1me/DxAHwQ6e/KogSFAGu4BwMpjYWQIUDwTaHll8IwZpRkAK9YI4CnWP2dYvpkBjEGg16DSjs2i/ZWJq5gBxA8Em16DJCd7PaYhQFitOAD9OogfCfkqPQGUOTc/WSWaWJSGdfl2Y+AqJgC0eOQBso1GgzZ3ngX6rGEC0P4aOw363GmQNUwAiovJ/GQfpqpH+mVzqLRZwwCAxW9TAHKndLBh2ejd0AAg2u4EAMpFfsydejc0AIhfBPOrNai6AtrEDQ1Cal+M2mgwMmvdUA9QfgnnV2kAmLVBWwswFqO8Bql06HoXfbRc44ZagJS+igHkGiDmR40GWgBQjE40kDyMAtelOmBoAVh5Dyddg8JIug5w4LrVxEwNQDIsqNayEDqERAMWI2ZNDa0DwEHg/hcU5KYQPs0FrmyjrKE1AGH0jl7nxxaURmdUqAEfuNRuqAGAC6pxqKiAeeFW1DJjyQEDvCrdUA3ABYH6t6DibC1aB9UkcF2oXoEaABejTRWCBH4VaYC2MK0p3VANUNzyA7ESanAx1QBvYTpTlbBKAFZeE366Em5R1tPfxm1hBuncAKoNDAJdTGubhUcNJtmWFYLq5TKVu6EKgGI5u99B0SZpogG/helMEQ1VAGkK5RwCCnrHa751LE4dB7kbqgCwnENrCGvArQPYx4Amd0MFALcjHd42jg1cLMJeM5rcDRUAWM4xraJkx63xaRDgn7YAwDvS8TekAShRcOtYVj8q3FAOgOUEOY0WUIMHqAFKHTfweWk07AFYNLGPHMp5DdwdTQNHxu6xhVJlmw9+giQdAeh2sznlLL1CrxD8UPSioQYpA+LsywhWkzcpP0G+pUeA8nm3O+MNzo+dKIa7ZaABSh1PMfbIyfjZdVNX9wDSyrM3vIyQBmPrGIfhvEq24jV5fEcAQLD/hca1A8JUqAFK1asolG4phj8xB+B9GGswvJ34E/xv00irTpWvwAKAzzlYg36BhBHoJLXLlsbryVBOAJM4JtQAbSK7ZYtLSneAaSRHGnTHuTSG6/Yz7tzymh/LBUDQHUeV5ypptqloQ5ad9rlb9QqMAQRhlFUgznZrBCXv4ZEweZ8MJwIolHFAVFaj3cdLzAeBY+CU721RHKju9vtzie3vmaARkMDE32gQBSAIjHumMDqQbGL7VTPwOmTHZEQZCyXGUlEew/uf2klQ8n4bU1cYfOWcfeW1w9QDt38zAKSpDEDSCEEaPMU4ecPUlSa8VVU6Dux8iSeB2fpQFVASya5VaM4AeB3kv2BgMGlSzwbAGnx+wFrszuKiiTsAKoDfYENf00f2BYA2jmfwRMPoqGY+gDzGqPvY/gCirWgbSMi5vIPpF0C4ESa256pzLvNNztI6MzrV9AIgPkgwOFP0BcB1UZ0UmHefUpTFbc/2ZwGINLC93TALALfMOrO93zHvSuu0JZbZ3vSaB4DaNa0pukHfATDdfD3Y3riceauYP1R9ZRaJ0AcA6giQpm1nO+BMANyukTTwvxMAt47Ja2CrwGwArIFVKeIHALeOrUoRPwBoB75XdMW/DQC2zGzKcW8AsFXgoIAHgFEDy1LEF8DYrnG6ZOfhA4+jBk7XDD0ADBq8O13y8wAQ9ic7L07XHH18Y9O1xxwvnfsA6BqEjlddfQB03ZFPt4umXj5zaloFmeN1Zy8ATbvG9cK3FwBWrdRn9N8N0KwD1w8v/ABEz1ep40i+vrWjrgNZfeolN1E31xRgYfsPsLjRYLGvnjs7+QcAFv/weUEC+q98/H5y8rtZjz/69X893Z926r+YdFtgAK/o7QAAAABJRU5ErkJggg==;" parent="1" vertex="1">
          <mxGeometry x="475" y="330" width="60" height="60" as="geometry" />
        </mxCell>
        <mxCell id="sJAkSyZmvU-YgBx9wPWd-7" value="Keyvault" style="image;aspect=fixed;html=1;points=[];align=center;fontSize=12;image=img/lib/azure2/security/Key_Vaults.svg;" parent="1" vertex="1">
          <mxGeometry x="988" y="322" width="68" height="68" as="geometry" />
        </mxCell>
        <mxCell id="CkvI0cMK4T_Tbto0kPHf-6" value="&lt;font style=&quot;font-size: 14px;&quot;&gt;POST&lt;/font&gt;" style="edgeStyle=orthogonalEdgeStyle;rounded=0;orthogonalLoop=1;jettySize=auto;html=1;strokeWidth=3;fillColor=#f5f5f5;strokeColor=#FF9999;" parent="1" source="XdyKfdpSOrHMwj-g5sN_-37" target="CkvI0cMK4T_Tbto0kPHf-3" edge="1">
          <mxGeometry x="-0.738" y="1" relative="1" as="geometry">
            <mxPoint x="589" y="628" as="sourcePoint" />
            <mxPoint x="589" y="1510" as="targetPoint" />
            <mxPoint as="offset" />
          </mxGeometry>
        </mxCell>
        <mxCell id="CkvI0cMK4T_Tbto0kPHf-26" value="&lt;font style=&quot;font-size: 14px;&quot;&gt;POST&lt;/font&gt;" style="edgeLabel;html=1;align=center;verticalAlign=middle;resizable=0;points=[];" parent="CkvI0cMK4T_Tbto0kPHf-6" vertex="1" connectable="0">
          <mxGeometry x="0.8492" relative="1" as="geometry">
            <mxPoint as="offset" />
          </mxGeometry>
        </mxCell>
        <mxCell id="rKX6zV0WwSnjEaZJo3WC-3" value="With only RO service principals" style="text;html=1;align=center;verticalAlign=middle;resizable=0;points=[];autosize=1;strokeColor=none;fillColor=none;" parent="1" vertex="1">
          <mxGeometry x="585" y="820" width="190" height="30" as="geometry" />
        </mxCell>
        <mxCell id="rKX6zV0WwSnjEaZJo3WC-4" value="With only RW service principals" style="text;html=1;align=center;verticalAlign=middle;resizable=0;points=[];autosize=1;strokeColor=none;fillColor=none;" parent="1" vertex="1">
          <mxGeometry x="685" y="610" width="190" height="30" as="geometry" />
        </mxCell>
        <mxCell id="tw3CjWlPFAVfij_czGE9-1" value="RO/RW Service principals" style="text;html=1;align=center;verticalAlign=middle;resizable=0;points=[];autosize=1;strokeColor=none;fillColor=none;" parent="1" vertex="1">
          <mxGeometry x="365" y="440" width="160" height="30" as="geometry" />
        </mxCell>
        <mxCell id="tw3CjWlPFAVfij_czGE9-2" value="" style="shape=image;verticalLabelPosition=bottom;labelBackgroundColor=default;verticalAlign=top;aspect=fixed;imageAspect=0;image=data:image/jpeg,/9j/4gxYSUNDX1BST0ZJTEUAAQEAAAxITGlubwIQAABtbnRyUkdCIFhZWiAHzgACAAkABgAxAABhY3NwTVNGVAAAAABJRUMgc1JHQgAAAAAAAAAAAAAAAAAA9tYAAQAAAADTLUhQICAAAAAAAAAAAAAAAAAAAAAAAAAAAAAAAAAAAAAAAAAAAAAAAAAAAAAAAAAAAAAAABFjcHJ0AAABUAAAADNkZXNjAAABhAAAAGx3dHB0AAAB8AAAABRia3B0AAACBAAAABRyWFlaAAACGAAAABRnWFlaAAACLAAAABRiWFlaAAACQAAAABRkbW5kAAACVAAAAHBkbWRkAAACxAAAAIh2dWVkAAADTAAAAIZ2aWV3AAAD1AAAACRsdW1pAAAD+AAAABRtZWFzAAAEDAAAACR0ZWNoAAAEMAAAAAxyVFJDAAAEPAAACAxnVFJDAAAEPAAACAxiVFJDAAAEPAAACAx0ZXh0AAAAAENvcHlyaWdodCAoYykgMTk5OCBIZXdsZXR0LVBhY2thcmQgQ29tcGFueQAAZGVzYwAAAAAAAAASc1JHQiBJRUM2MTk2Ni0yLjEAAAAAAAAAAAAAABJzUkdCIElFQzYxOTY2LTIuMQAAAAAAAAAAAAAAAAAAAAAAAAAAAAAAAAAAAAAAAAAAAAAAAAAAAAAAAAAAAAAAAAAAWFlaIAAAAAAAAPNRAAEAAAABFsxYWVogAAAAAAAAAAAAAAAAAAAAAFhZWiAAAAAAAABvogAAOPUAAAOQWFlaIAAAAAAAAGKZAAC3hQAAGNpYWVogAAAAAAAAJKAAAA+EAAC2z2Rlc2MAAAAAAAAAFklFQyBodHRwOi8vd3d3LmllYy5jaAAAAAAAAAAAAAAAFklFQyBodHRwOi8vd3d3LmllYy5jaAAAAAAAAAAAAAAAAAAAAAAAAAAAAAAAAAAAAAAAAAAAAAAAAAAAAAAAAAAAAABkZXNjAAAAAAAAAC5JRUMgNjE5NjYtMi4xIERlZmF1bHQgUkdCIGNvbG91ciBzcGFjZSAtIHNSR0IAAAAAAAAAAAAAAC5JRUMgNjE5NjYtMi4xIERlZmF1bHQgUkdCIGNvbG91ciBzcGFjZSAtIHNSR0IAAAAAAAAAAAAAAAAAAAAAAAAAAAAAZGVzYwAAAAAAAAAsUmVmZXJlbmNlIFZpZXdpbmcgQ29uZGl0aW9uIGluIElFQzYxOTY2LTIuMQAAAAAAAAAAAAAALFJlZmVyZW5jZSBWaWV3aW5nIENvbmRpdGlvbiBpbiBJRUM2MTk2Ni0yLjEAAAAAAAAAAAAAAAAAAAAAAAAAAAAAAAAAAHZpZXcAAAAAABOk/gAUXy4AEM8UAAPtzAAEEwsAA1yeAAAAAVhZWiAAAAAAAEwJVgBQAAAAVx/nbWVhcwAAAAAAAAABAAAAAAAAAAAAAAAAAAAAAAAAAo8AAAACc2lnIAAAAABDUlQgY3VydgAAAAAAAAQAAAAABQAKAA8AFAAZAB4AIwAoAC0AMgA3ADsAQABFAEoATwBUAFkAXgBjAGgAbQByAHcAfACBAIYAiwCQAJUAmgCfAKQAqQCuALIAtwC8AMEAxgDLANAA1QDbAOAA5QDrAPAA9gD7AQEBBwENARMBGQEfASUBKwEyATgBPgFFAUwBUgFZAWABZwFuAXUBfAGDAYsBkgGaAaEBqQGxAbkBwQHJAdEB2QHhAekB8gH6AgMCDAIUAh0CJgIvAjgCQQJLAlQCXQJnAnECegKEAo4CmAKiAqwCtgLBAssC1QLgAusC9QMAAwsDFgMhAy0DOANDA08DWgNmA3IDfgOKA5YDogOuA7oDxwPTA+AD7AP5BAYEEwQgBC0EOwRIBFUEYwRxBH4EjASaBKgEtgTEBNME4QTwBP4FDQUcBSsFOgVJBVgFZwV3BYYFlgWmBbUFxQXVBeUF9gYGBhYGJwY3BkgGWQZqBnsGjAadBq8GwAbRBuMG9QcHBxkHKwc9B08HYQd0B4YHmQesB78H0gflB/gICwgfCDIIRghaCG4IggiWCKoIvgjSCOcI+wkQCSUJOglPCWQJeQmPCaQJugnPCeUJ+woRCicKPQpUCmoKgQqYCq4KxQrcCvMLCwsiCzkLUQtpC4ALmAuwC8gL4Qv5DBIMKgxDDFwMdQyODKcMwAzZDPMNDQ0mDUANWg10DY4NqQ3DDd4N+A4TDi4OSQ5kDn8Omw62DtIO7g8JDyUPQQ9eD3oPlg+zD88P7BAJECYQQxBhEH4QmxC5ENcQ9RETETERTxFtEYwRqhHJEegSBxImEkUSZBKEEqMSwxLjEwMTIxNDE2MTgxOkE8UT5RQGFCcUSRRqFIsUrRTOFPAVEhU0FVYVeBWbFb0V4BYDFiYWSRZsFo8WshbWFvoXHRdBF2UXiReuF9IX9xgbGEAYZRiKGK8Y1Rj6GSAZRRlrGZEZtxndGgQaKhpRGncanhrFGuwbFBs7G2MbihuyG9ocAhwqHFIcexyjHMwc9R0eHUcdcB2ZHcMd7B4WHkAeah6UHr4e6R8THz4faR+UH78f6iAVIEEgbCCYIMQg8CEcIUghdSGhIc4h+yInIlUigiKvIt0jCiM4I2YjlCPCI/AkHyRNJHwkqyTaJQklOCVoJZclxyX3JicmVyaHJrcm6CcYJ0kneierJ9woDSg/KHEooijUKQYpOClrKZ0p0CoCKjUqaCqbKs8rAis2K2krnSvRLAUsOSxuLKIs1y0MLUEtdi2rLeEuFi5MLoIuty7uLyQvWi+RL8cv/jA1MGwwpDDbMRIxSjGCMbox8jIqMmMymzLUMw0zRjN/M7gz8TQrNGU0njTYNRM1TTWHNcI1/TY3NnI2rjbpNyQ3YDecN9c4FDhQOIw4yDkFOUI5fzm8Ofk6Njp0OrI67zstO2s7qjvoPCc8ZTykPOM9Ij1hPaE94D4gPmA+oD7gPyE/YT+iP+JAI0BkQKZA50EpQWpBrEHuQjBCckK1QvdDOkN9Q8BEA0RHRIpEzkUSRVVFmkXeRiJGZ0arRvBHNUd7R8BIBUhLSJFI10kdSWNJqUnwSjdKfUrESwxLU0uaS+JMKkxyTLpNAk1KTZNN3E4lTm5Ot08AT0lPk0/dUCdQcVC7UQZRUFGbUeZSMVJ8UsdTE1NfU6pT9lRCVI9U21UoVXVVwlYPVlxWqVb3V0RXklfgWC9YfVjLWRpZaVm4WgdaVlqmWvVbRVuVW+VcNVyGXNZdJ114XcleGl5sXr1fD19hX7NgBWBXYKpg/GFPYaJh9WJJYpxi8GNDY5dj62RAZJRk6WU9ZZJl52Y9ZpJm6Gc9Z5Nn6Wg/aJZo7GlDaZpp8WpIap9q92tPa6dr/2xXbK9tCG1gbbluEm5rbsRvHm94b9FwK3CGcOBxOnGVcfByS3KmcwFzXXO4dBR0cHTMdSh1hXXhdj52m3b4d1Z3s3gReG54zHkqeYl553pGeqV7BHtje8J8IXyBfOF9QX2hfgF+Yn7CfyN/hH/lgEeAqIEKgWuBzYIwgpKC9INXg7qEHYSAhOOFR4Wrhg6GcobXhzuHn4gEiGmIzokziZmJ/opkisqLMIuWi/yMY4zKjTGNmI3/jmaOzo82j56QBpBukNaRP5GokhGSepLjk02TtpQglIqU9JVflcmWNJaflwqXdZfgmEyYuJkkmZCZ/JpomtWbQpuvnByciZz3nWSd0p5Anq6fHZ+Ln/qgaaDYoUehtqImopajBqN2o+akVqTHpTilqaYapoum/adup+CoUqjEqTepqaocqo+rAqt1q+msXKzQrUStuK4trqGvFq+LsACwdbDqsWCx1rJLssKzOLOutCW0nLUTtYq2AbZ5tvC3aLfguFm40blKucK6O7q1uy67p7whvJu9Fb2Pvgq+hL7/v3q/9cBwwOzBZ8Hjwl/C28NYw9TEUcTOxUvFyMZGxsPHQce/yD3IvMk6ybnKOMq3yzbLtsw1zLXNNc21zjbOts83z7jQOdC60TzRvtI/0sHTRNPG1EnUy9VO1dHWVdbY11zX4Nhk2OjZbNnx2nba+9uA3AXcit0Q3ZbeHN6i3ynfr+A24L3hROHM4lPi2+Nj4+vkc+T85YTmDeaW5x/nqegy6LzpRunQ6lvq5etw6/vshu0R7ZzuKO6070DvzPBY8OXxcvH/8ozzGfOn9DT0wvVQ9d72bfb794r4Gfio+Tj5x/pX+uf7d/wH/Jj9Kf26/kv+3P9t////4Uq3aHR0cDovL25zLmFkb2JlLmNvbS94YXAvMS4wLwA8P3hwYWNrZXQgYmVnaW49Iu+7vyIgaWQ9Ilc1TTBNcENlaGlIenJlU3pOVGN6a2M5ZCI/Pgo8eDp4bXBtZXRhIHhtbG5zOng9ImFkb2JlOm5zOm1ldGEvIiB4OnhtcHRrPSJBZG9iZSBYTVAgQ29yZSA3LjAtYzAwMCA3OS4yMTdiY2E2LCAyMDIxLzA2LzE0LTE4OjI4OjExICAgICAgICAiPgogICA8cmRmOlJERiB4bWxuczpyZGY9Imh0dHA6Ly93d3cudzMub3JnLzE5OTkvMDIvMjItcmRmLXN5bnRheC1ucyMiPgogICAgICA8cmRmOkRlc2NyaXB0aW9uIHJkZjphYm91dD0iIgogICAgICAgICAgICB4bWxuczpkYz0iaHR0cDovL3B1cmwub3JnL2RjL2VsZW1lbnRzLzEuMS8iCiAgICAgICAgICAgIHhtbG5zOnhtcD0iaHR0cDovL25zLmFkb2JlLmNvbS94YXAvMS4wLyIKICAgICAgICAgICAgeG1sbnM6eG1wR0ltZz0iaHR0cDovL25zLmFkb2JlLmNvbS94YXAvMS4wL2cvaW1nLyIKICAgICAgICAgICAgeG1sbnM6eG1wTU09Imh0dHA6Ly9ucy5hZG9iZS5jb20veGFwLzEuMC9tbS8iCiAgICAgICAgICAgIHhtbG5zOnN0UmVmPSJodHRwOi8vbnMuYWRvYmUuY29tL3hhcC8xLjAvc1R5cGUvUmVzb3VyY2VSZWYjIgogICAgICAgICAgICB4bWxuczpzdEV2dD0iaHR0cDovL25zLmFkb2JlLmNvbS94YXAvMS4wL3NUeXBlL1Jlc291cmNlRXZlbnQjIgogICAgICAgICAgICB4bWxuczppbGx1c3RyYXRvcj0iaHR0cDovL25zLmFkb2JlLmNvbS9pbGx1c3RyYXRvci8xLjAvIgogICAgICAgICAgICB4bWxuczpwZGY9Imh0dHA6Ly9ucy5hZG9iZS5jb20vcGRmLzEuMy8iCiAgICAgICAgICAgIHhtbG5zOnBkZng9Imh0dHA6Ly9ucy5hZG9iZS5jb20vcGRmeC8xLjMvIj4KICAgICAgICAgPGRjOmZvcm1hdD5pbWFnZS9qcGVnPC9kYzpmb3JtYXQ+CiAgICAgICAgIDxkYzp0aXRsZT4KICAgICAgICAgICAgPHJkZjpBbHQ+CiAgICAgICAgICAgICAgIDxyZGY6bGkgeG1sOmxhbmc9IngtZGVmYXVsdCI+SW50ZXJjZXB0IC0gTG9nbyAtIEF1Z3VzdHVzIDIwMjE8L3JkZjpsaT4KICAgICAgICAgICAgPC9yZGY6QWx0PgogICAgICAgICA8L2RjOnRpdGxlPgogICAgICAgICA8eG1wOkNyZWF0b3JUb29sPkFkb2JlIElsbHVzdHJhdG9yIDI1LjQgKFdpbmRvd3MpPC94bXA6Q3JlYXRvclRvb2w+CiAgICAgICAgIDx4bXA6Q3JlYXRlRGF0ZT4yMDIxLTA4LTEyVDA4OjM5OjQzKzAyOjAwPC94bXA6Q3JlYXRlRGF0ZT4KICAgICAgICAgPHhtcDpNb2RpZnlEYXRlPjIwMjEtMDgtMTJUMDY6Mzk6NDNaPC94bXA6TW9kaWZ5RGF0ZT4KICAgICAgICAgPHhtcDpNZXRhZGF0YURhdGU+MjAyMS0wOC0xMlQwODozOTo0MyswMjowMDwveG1wOk1ldGFkYXRhRGF0ZT4KICAgICAgICAgPHhtcDpUaHVtYm5haWxzPgogICAgICAgICAgICA8cmRmOkFsdD4KICAgICAgICAgICAgICAgPHJkZjpsaSByZGY6cGFyc2VUeXBlPSJSZXNvdXJjZSI+CiAgICAgICAgICAgICAgICAgIDx4bXBHSW1nOndpZHRoPjI1NjwveG1wR0ltZzp3aWR0aD4KICAgICAgICAgICAgICAgICAgPHhtcEdJbWc6aGVpZ2h0PjEyODwveG1wR0ltZzpoZWlnaHQ+CiAgICAgICAgICAgICAgICAgIDx4bXBHSW1nOmZvcm1hdD5KUEVHPC94bXBHSW1nOmZvcm1hdD4KICAgICAgICAgICAgICAgICAgPHhtcEdJbWc6aW1hZ2U+LzlqLzRBQVFTa1pKUmdBQkFnRUFTQUJJQUFELzdRQXNVR2h2ZEc5emFHOXdJRE11TUFBNFFrbE5BKzBBQUFBQUFCQUFTQUFBQUFFQSYjeEE7QVFCSUFBQUFBUUFCLys0QURrRmtiMkpsQUdUQUFBQUFBZi9iQUlRQUJnUUVCQVVFQmdVRkJna0dCUVlKQ3dnR0JnZ0xEQW9LQ3dvSyYjeEE7REJBTURBd01EQXdRREE0UEVBOE9EQk1URkJRVEV4d2JHeHNjSHg4Zkh4OGZIeDhmSHdFSEJ3Y05EQTBZRUJBWUdoVVJGUm9mSHg4ZiYjeEE7SHg4Zkh4OGZIeDhmSHg4Zkh4OGZIeDhmSHg4Zkh4OGZIeDhmSHg4Zkh4OGZIeDhmSHg4Zkh4OGZIeDhmLzhBQUVRZ0FnQUVBQXdFUiYjeEE7QUFJUkFRTVJBZi9FQWFJQUFBQUhBUUVCQVFFQUFBQUFBQUFBQUFRRkF3SUdBUUFIQ0FrS0N3RUFBZ0lEQVFFQkFRRUFBQUFBQUFBQSYjeEE7QVFBQ0F3UUZCZ2NJQ1FvTEVBQUNBUU1EQWdRQ0JnY0RCQUlHQW5NQkFnTVJCQUFGSVJJeFFWRUdFMkVpY1lFVU1wR2hCeFd4UWlQQiYjeEE7VXRIaE14Wmk4Q1J5Z3ZFbFF6UlRrcUt5WTNQQ05VUW5rNk96TmhkVVpIVEQwdUlJSm9NSkNoZ1poSlJGUnFTMFZ0TlZLQnJ5NC9QRSYjeEE7MU9UMFpYV0ZsYVcxeGRYbDlXWjJocGFtdHNiVzV2WTNSMWRuZDRlWHA3ZkgxK2YzT0VoWWFIaUltS2k0eU5qbytDazVTVmxwZVltWiYjeEE7cWJuSjJlbjVLanBLV21wNmlwcXF1c3JhNnZvUkFBSUNBUUlEQlFVRUJRWUVDQU1EYlFFQUFoRURCQ0VTTVVFRlVSTmhJZ1p4Z1pFeSYjeEE7b2JId0ZNSFI0U05DRlZKaWN2RXpKRFJEZ2hhU1V5V2lZN0xDQjNQU05lSkVneGRVa3dnSkNoZ1pKalpGR2lka2RGVTM4cU96d3lncCYjeEE7MCtQemhKU2t0TVRVNVBSbGRZV1ZwYlhGMWVYMVJsWm1kb2FXcHJiRzF1YjJSMWRuZDRlWHA3ZkgxK2YzT0VoWWFIaUltS2k0eU5qbyYjeEE7K0RsSldXbDVpWm1wdWNuWjZma3FPa3BhYW5xS21xcTZ5dHJxK3YvYUFBd0RBUUFDRVFNUkFEOEFPTlUxRy8xQzlsdXI2UnBMaDJKYiYjeEE7bFg0ZC9zZ0hvQjRaekU1bVJzODNtcHpNalo1cy93RExma3Z6dkJwdHZmNmRyQzJwbmpXV08xWm5hUGl3cXZJVVpPbitUbXh3NmJLSSYjeEE7Z3hsVHNNT215aUlNWlVtMXorWWw3NVlWVjg3V290SW1xSXRSdC9qamtJN2NCVTh2bHY3Wmw0ODJRSGhuSDRoeXNlWElEd3pqOFF4OSYjeEE7ZlA4QStaZm5ZT25rYlIxMG5TaVNGMTdVNmZFSzA1UnBSbHIxclFTZlJtVzViQWZ6Ui9MSDh3ZE8wS1h6RHJ2bUQ5TXd3dWd1WW1rbCYjeEE7L2QrcTRRR05YK0hqellDZ0ErV0tzWS9KN1hkYTB6ejlvOE9uek9zTjljeDI5NWJnbmhKRkllTGxsNkhpdnhBOXFZcSt0TmExaXcwYiYjeEE7U3JuVk5RY3gyVm9ucVR1RkxFS052c3JVbkZVczhvZWZQTFhtNk81azBPNGE0U3pLTE9YamVPaGtCSy9iQXI5azRxZ3RFL05UeVJyVyYjeEE7dXRvVmpmazZtRElvaGtqa2pETkVmalZXY0FNZGlhRHRpckxjVllmYmZtdDVSdVBOeDhxUnlUZnBkWnBMWW9ZaUkvVWlCTGZIWHA4SiYjeEE7eFZCYWwrZUg1YzZicU4xcDEzZnlwZFdVMGx2Y0lMZVpnSkltS09LaGFHakRGVVAvQU5EQWZsZi9BTlhHWC9wR24vNXB4VkZhVCtkbiYjeEE7NWVhdHFkcnB0bGZTU1hkNUlzTUNHM21VRjNOQUtsUUJpcS9XdnpvL0w3UnRWdWRMMUMra2p2YlIvVG5RUVNzQXczKzBxa0hGVUYvMCYjeEE7TUIrVi93RDFjWmYra2FmL0FKcHhWTi9LMzVxZVMvTkdwblROR3UzbnV4RzB4Um9aSXh3UWdFMWRRUDJoaXFUMy93Q2Z2NWUyTjljMiYjeEE7VnhOY2llMWxlR1VMQXhIT05pclVOZkVZcXRpLzV5RC9BQ3hkYXRmVHhHdEtQYlNrL1A0UTJLczA4dmVhUEwvbUt5K3VhSmZSWDF1RCYjeEE7UnpHU0dRbnM2TUE2SDJZREZVZmQzZHJaMjBsMWR6SmIyMEtscFpwV0NJcWpxV1pxQURGWG0rcWY4NUVmbHhaVE5GRExkYWh4NnlXcyYjeEE7UHdrK3htYUd1S3B2NVcvT1R5RjVrdWtzN08rTnRmU0hqRmEzYStpems3QUkxU2pFOWxEVjlzVlIvbTc4eVBLWGxLNXQ3ZlhMcDRKYiYjeEE7bERKQ0Vpa2txcW1oM1FHbStLcEQvd0JEQWZsZi93QlhHWC9wR24vNXB4VldzZnowL0xlOXZiZXl0NytWcmk1a1NHRlRiekFGNUdDcSYjeEE7S2xhRGM0cWp2TjM1c2VUZktlb3JwdXJ6ekxlTkdzd2ppaVovZ2NrQThoOFBWVDN4VkkvK2hpZnkyLzM5ZGY4QVNPMzljVlpSNVYvTSYjeEE7anlaNXBrTU9qYWtrMTBvTE5hdUdpbW9PcENTQlN3SGNyWEZVSjVuL0FEWThrZVdkVmJTOVl2SkliMVVXUW9zTXNnNHZ1dnhLcEdLcCYjeEE7Vi8wTUIrVi8vVnhsL3dDa2FmOEE1cHhWMy9Rd0g1WC9BUFZ4bC82UnAvOEFtbkZXTWZtVjVZazBuV252SWsvMEMvWXlSc09peUhkMCYjeEE7UDA3ajIrV2FMVzRPQ1Zqa1hSNjNCd1NzY2lqOUUvTkM3MDd5ekRwZHJwczJxNitIRnJwZHRHUGhjTUNWTWpmc3JHQnY3VTl5TTNRNiYjeEE7Z1Nqd0htSE0wT280bzhKNWhPdEIvSzU3NjlYWC9QczY2NXJqQ3NWbTI5amFBNytuRkVmaGFuY25iMnJ2bXdkZ21kNTVaMUxRcDMxTCYjeEE7eXFhUms4cnJSWFA3bVFkekZYN0RmNSsyWVVzRXNaNHNmK2xjT1dDV004V1A1UEdmengvTmVQekJiMjNsN1RFa2d0NGo2dXJMSnN4biYjeEE7VTBXSDVSbmMrSnAwNDVsWTU4VVFhcHljYytLSU5Vai9BUG5HL3dBaHlUMzBubkM5anBiMjNPMzB3TVB0eXNPTWtvcjJSU1VCOFNmNSYjeEE7Y216ZXMvbTUvd0NTMjh3Zjh3cmY4U0dLdk9mK2NXdjk0UE1QL0dXMi93Q0l5WXE4VDFLUy9nOHo2aGQySmtTNHM3dVdkWm9xOG8rRSYjeEE7eG85UjBvMU44VmZVMzVTL21UYitkTkNIcnNxYTVaQUpxRUEyNWRsbVFmeXYrQjI4TVZlUGFKLzYwbkovMjFiei9pRXVLdlh0Uy9JLyYjeEE7OHVkUzFHNjFHN3NKWHVyMmFTNHVIRnhNb01rckYzTkExQlZqaXJ3SzE4cDZKSitjcmVXR2hZNk9OVGt0ZlI1dHk5SlN3QTUxNWR1dCYjeEE7Y1ZlLzZUK1NmNWVhVHFkcnFWbFl5UjNkbklzMERtNG1ZQjBOUWFGaURpcncvd0F3YUhaYTcrZk4zcEY2WEZwZTZpWXBqR1FyOFNsZiYjeEE7aEpCOFBERlhxMy9RdG41ZWY3ODFEL2tlbi9WUEZVOThtL2svNVQ4bzZ1ZFYwcDdwcnBvbWdJbmtWMDR1UVRzRVhmNGZIRlhnUGwzeSYjeEE7N3B2bVA4NkxqUnRUVjJzYnEvMUgxaEczQnYzYXpTTFJoL2xJTVZlelMvOEFPT2Y1Y1BHeXFsNUd6Q2drV2VwVStJNUtSOTR4VjVSNSYjeEE7RkYvNUkvT3FQUTdlNU0wRFhoMDY0cHNzc011eUZoNHJWVzlpTVZUWDg5L05lcmVZdk9jUGt2U3l6VzFyTEZCOVhRMEU5NU5Tbkx0UiYjeEE7T1lVVjZHcHhWblBsZi9uSFB5WFkyTWY2ZEVtclg3S0RPZlVraGhWaU4xaldJbzlCNHMyL3QweFZRMVQvQUp4cDhxVDZyYTNPbjNkeCYjeEE7WldDdURlV1JQcThrRzlJcEcrSkNlL0xsaXJFZitjbklraDFuUUlZNjhJN04wVGtTeG9yZ0NyTVNUOHppckt2TC93RHpqMTVDdjlCMCYjeEE7Mitua3ZoUGQyc0U4b1daQXZPU05XYWc5TTdWT0twdnAzL09QWGtLdzFDMnZvSkw0ejJrcVR4QnBrSzhvMkRMVWVtTnFqRlhsWC9PUyYjeEE7WC9rdzQvOEFtQWcvNG5KaXIxWC9BS0YyL0xiL0FIemRmOUpEZjB4VjQ1K2FQa2gveTI4MWFkZDZGZVMraE1Qck5oSTVIclJTUXNPUyYjeEE7a3FBR0c0cHR1RFErNnIzSzQvTG55UjU3dDdEelJxOWs4bDVxTmxieWxrbWxqVUs4WWRRRlZoMDVZcThEL09ueW5vbmxmemdtbWFOQyYjeEE7MEZvYlNLWW96dEllYnM0SnE1Si9aR0t2ZGY4QW9YLzhyLzhBcTNTLzlKTS8vTldLcTM1eStiZEwwWHkxOVFsdHhmNnRxcDlIUzdIcSYjeEE7ZlVxQjZwcDhRQ0ZoU25VN2VPUXlZeE9ORmhreGlZb3ZPdFMwTHpGNWF1TFNXOFEydHl5cExGTkMzSlZrb0N5cTRwOFNIWS8welE1cyYjeEE7TXNVdnVMb3MyR1dLWDNGNlo1Ty9NdXcxS0lXdXJ5SmFYNkQrK1loSXBBTzlUc3JlSVAwZUdiTFRhMFQybHRKMldtMWdudExhVHp2OCYjeEE7MlB6OFJvNTlDOG56VjVBeDNXc3BVYmRHVzJQNGVwL3dQWnN6M09lWStTdnk1MTN6TmIzZXB4UU4raU5QSE81bit5WkN0QzBVVlFlVCYjeEE7aGZpUGdQY2dHck5NeGlTQlphODB6R0pJRmw5WGVTNzdSYnZ5NVovb2VGYld6Z1FRaTBYL0FIU1VHNkh4OGE5K3VPSE1Na2JDTU9VWiYjeEE7STJFdC9Oei9BTWx0NWcvNWhXLzRrTXRiWG5QL0FEaTEvdkI1aC80eTIzL0VaTVZZcCtUOXRiM1g1djZqYlhNYXpXOHlhaEhORTRESyYjeEE7eU14REt3UFVFWXFvK2IvTDJ1ZmxKNTd0OVkwWXNkS21kbXNuYXBWb3lmM2xwTWU5Qjk0b3czR3lxajVEMW1IVy93QTlyVFY0RWFLSyYjeEE7L3ZyaTRTTjZjbEVrVWpjVFRiYkZYMVhpcjVkc2YvV2pHLzdiVTMvRW14VjlSWXErU2ZPK2xhbHEvd0NjK3A2YnBrZ2h2N3EvTWR2SSYjeEE7V01ZVmlvTmVTMUl4VmtmL0FDbzM4NGYrcnRGLzBtei9BUE5HS3M4L0tIOHUvUFhsalc3Mjc4dzNxWFZyTmJlbENpM0VreEVucUsxYSYjeEE7T3FnYktkOFZlSC9wYlh0SS9ORFVOUTBHSXo2dEJmMzMxYUpZek1Uek1xUCs3RzUrQm14VmtXcC9udCtiZG16V3Q3d3NMaGxxQkphQyYjeEE7T1FBN0Jnc2c5dkRGV1NmazErVjNtRzc4eFErZC9NYmZ1aVd2TFRrNnlTWE0wb0pFekZTMUZITGx1YWswMnBpckg0NVlOTi81eU1lVCYjeEE7VUFJNHYwdkp1L1FmV0FmUlkxN1ZrVTF4VjlRNHE3Rlh6cC96bEYveDN0RS81aFpQK1RtS3BkcGY1TWZteGVhWmFYZHJxa1NXdHhESCYjeEE7TEFodkoxSWpkQXlpZ1dnb0QweFZrSGxIOG4velMwenpScGVvYWhxY2N0amFYTWN0ekdMdVp5MGFNQ3c0c29CMjdZcXhuL25KTC95WSYjeEE7Y2Y4QXpBUWY4VGt4Vk4vK2hvdGUvd0NySmEvOGpKTVZZNFkvUGY1eCthNFpwSVBTczRxUk5QR2pDMXRZYTFiNG1KNU9ldEsxWStBRyYjeEE7eXI2b3NiT0N5c3JlemdIR0MyalNHSUhjaEkxQ3IrQXhWOHgvODVKZitURGovd0NZQ0QvaWNtS3ZxTEZYeVplZm1UYjMzNXZRZWE5VSYjeEE7UjduU3JLNnBhd3FBU2x0RVdFUlJTYWNnVDZuWDdXS3ZTZk5mL09RdjVmM1duUzJjT2wzV3I4NlVqbEMyOFZmSDFDWGtWaDJJVElUeCYjeEE7aVFvOG1FNENRbzhuZytxK1l0UzFOekdUNlVESDRiZU91OVRzR1BWc3B4YVdHUGNjMm5GcFlZOXh6VGp5djVTaWE3Z3U5Y2hkckZXRCYjeEE7UFpJL3BTU0FiMEwwYmdEMzJyOHV1VVp0ZkdKcU83VG0xOFltbzd2b3pTdnpNOGxXV21SV2x0YVMyVUVDY0lyT09KUWlnZnNyeFBIZiYjeEE7M3dqdERIWFZJN1F4MTFZdCtXL21BMlhtbjZzb0tXT3B1WXpEMlZpU1lqOUgyZnB6QzBXYmh5VjBrNFdqemNPU3VrbWMvbTUvNUxieiYjeEE7Qi96Q3QveEladkhkdk9mK2NXdjk0UE1QL0dXMi93Q0l5WXF4ajhsdi9KMFhuL1I5L3dBU09Ldm9QemI1VzB2elJvTnpvMnBKeWduRiYjeEE7WTVBQnppa0gySlVKNk1wL3AwT0t2bTN5RjVXMVR5ditkdWxhTnFTY1o0SjVDa2creEpHWUpPRWlIK1ZoL1RyaXI2cXhWOHUyUC9yUiYjeEE7amY4QWJhbS80azJLdnFMRlh5TjU4MXU5MEw4NDlWMWV5Q0c3c3I0eXdpUUZrNUJRUGlBSThmSEZVMy82R1MvTVAvZmRoL3lJZi9xcCYjeEE7aXJOL3lmOEF6ZzgyZWJ2Tmo2VnFxV3EycTJzazRNRWJJL05HUURjdTIzeFlxd2o4dVA4QTFvTWY4eCtxZjhtYmpGWHR2NXBmbHJZZSYjeEE7ZHRGTVk0dzZ4YWhtMDY3STZFN21KNmZzUCtIWDJLcnlEOHB2ekoxRHlQclV2bER6VUhnMDFabWkvZTliT1luYzk2eE9UVTBOUDJoMyYjeEE7cXF5djg5UHlrMUhYTGdlWnZMOFJuMUZVVkwreVg3Y3FvS0pKSDR1cTdGZTRwVGZxcXc3UXYrY2h2TytoUURUTmFzWTlRbHRmM1plNSYjeEE7NXdYUW9LVWxPOVNQRXJYeEp4VmREK2NINXQrYnZNRm12bDIxQ2ZWcEEvMUMwakxST0R0L3BVam43RzlOeW83OWFIRlVSL3prdzF5MiYjeEE7cStYbXVrV081YXhZenh4c1hSWExqa3FzUXBZQTlEUVlxa21uZjg1QytmYkRUN2F4Z2pzVEJhUkpCRVdoY3R3alVLdFQ2ZzNvTVZUaiYjeEE7eS84QTg1QytmYi9YdE5zWjQ3RVFYZDFCQktWaGNOd2trVldvZlVPOURpcUEvd0Nja3Y4QXlZY2YvTUJCL3dBVGt4VjlOL28rdy81WiYjeEE7b3Y4QWdGL3BpcXNxS2loVUFWVjJDZ1VBR0t0NHErWGYrY2t2L0poeC93RE1CQi94T1RGWDFGaXI1ZTE3L25IUHp6YTZqTW1rckJxRiYjeEE7Z1dKdDVmVldKd2xkaElzbkg0dmtTTVZSK2cvODR5ZVpybDFmVzlSdDlQaDdwQnl1SmZsL3V0QjgrUnhWN0I1TS9LVHlYNVNkYml3dCYjeEE7VGM2Z3RhYWhka1N6TFgrU2dWRThLcW9QaWNWUlhtRDh1dkx1c00wM3BtenUyM004RkZERS93QTZmWlA0SDN6RXphT0U5K1JjWE5vNCYjeEE7VDM1Rmd1b2ZsRjVoZ1ltem1odkkrMjVpZjZWYjRmOEFoc3dKOW5USEtpNEUrejVqbFJSM2xIOHN0YnR0YXRyL0FGUDA0SWJTUVNpTiYjeEE7V0R1N0thcjltb0FyNzVacDlETVNCbDBaNmZSU0VnWmRIcW1iWjJ6c1ZkaXJzVmRpcnNWZGlyc1ZkaXJzVmRpcnNWZGlyc1ZkaXFIdSYjeEE7dE8wKzdJTjFhdzNCWFpUTEdyMCtYSUhGVlNDMnQ3ZU1SVzhTUXhEb2thaFZIMENneFZVeFYyS3V4VjJLdXhWMkt1eFYyS3V4VjJLdSYjeEE7eFYyS3V4VjJLdXhWMkt1eFYyS3V4VjJLdXhWMkt1eFYyS3V4VjJLdXhWMkt1eFYyS3V4VjJLdXhWMkt1eFYyS3V4VjJLdXhWMkt1eCYjeEE7VjJLdXhWMkt1eFYyS3V4VjJLdXhWMkt1eFYyS3V4VjJLdXhWMkt1eFYyS3V4VjJLdXhWMkt1eFYyS3V4VjJLdXhWMkt1eFYyS3V4ViYjeEE7Mkt1eFYyS3V4VjJLdXhWMkt1eFYyS3V4VjJLdXhWMkt1eFYyS3V4VjJLdXhWMkt1eFYyS3V4VjJLdXhWMkt1eFYyS3V4VjJLdXhWMiYjeEE7S3V4VjJLdXhWMkt1eFYyS3V4VjJLdXhWMkt1eFYyS3V4VjJLdXhWMkt1eFYyS3V4VjJLdXhWMkt1eFYyS3V4VjJLdXhWMkt1eFYySyYjeEE7dXhWMkt1eFYyS3V4VjJLdXhWMkt1eFYyS3V4VjJLdXhWMkt1eFYyS3V4VjJLdXhWMkt1eFYyS3V4VjJLdXhWMkt1eFYyS3V4VjJLdSYjeEE7eFYyS3V4VjJLdXhWMkt1eFYyS3V4VjJLdXhWMkt1eFYyS3V4VjJLdXhWMkt1eFYyS3V4VjJLdXhWMkt1eFYyS3V4VjJLdXhWMkt1eCYjeEE7VjJLdXhWMkt1eFYyS3V4VjJLdXhWOEErYVA4QW5KbjgzTloxbTR2YlRXNWRKc25kdnF1bjJnUkVpanI4S2x1UEp6VHF6SDd1bUt2VSYjeEE7L3dBdi9QUC9BRGx5bWkydXVuUkI1bTBDNWpXV0FYZ3RZcmg0VHVHaUVUdzNCNWpkV1pHcU54VVlxOVM4bi84QU9SM2s3Vkx3NlA1cCYjeEE7Z204bGVZb3hXWFQ5WkhvUm1uZExpUVJyL3dBR0VKN0E0cWx2bUQvbkpqVExqVXB0Qy9MblJMenpyclVWUTBsb2pMWkpROFM1bEFabSYjeEE7VUg5b0tFUFo4VmVVZm1qNTgvNXkwMG5UdjAxcmtCOHQ2STdxbE5PRm82UnMzMlBVZEh1YmhLbmI0MkFydGlxV2ZraC96a1IrWmIvbSYjeEE7Rm8ramE1cWNtdGFWck4xSFpUUTNDcXp4dE93UkpZNUZVT3ZCaUNSOW1sZm1GWDJmZVhsblpXMGwzZVR4MjFyQ09Vczh6ckhHaStMTSYjeEE7eEFBK2VLb2JTdGYwTFdGa2JTZFN0ZFJXRWdUTmFUUnpoQzFhQnZUWnFWcDN4VlpwL21YeTVxTjNKWmFmcXRuZVhrSUpsdHJlNGlsbCYjeEE7UUtlTEZrUml3b1RRMUdLcGxpcVN4ZWQvSmN1c25RNHRmMDJUV2hJMEowdGJ1QTNYcUlDV1QwQS9xY2xvYWltS3JianoxNUl0cmlXMiYjeEE7dWZNT21RWEVEdEhOREplVzZPam9lTEt5czRJWUVVSU9LcWYvQUNzUHlCLzFNMmxmOUoxdC93QTE0cXEydm5qeVZkM01kcmFlWU5OdSYjeEE7TG1aZ2tNRVY1QTd1eDJDcXF1U1NmQVlxM2VlZHZKbGxjeVdsNXIrblcxMUNlTXNFMTNCSElqZURLemdnL1BGVkgvbFlma0QvQUttYiYjeEE7U3Y4QXBPdHYrYThWUmVtZWJQSzJxM0p0ZEwxbXh2N2tLWE1GdGN3elB4RkFXNG96R2dyMXhWQVArWmY1Y3gzYjJUK2F0SFM4aWRvNSYjeEE7YlpyKzFFcXVoSWRXUXljZ1ZvYWltMktxby9NTHlDVFFlWmRLSlBRZlhyYi9BSnJ4VlBJWm9aNGttaGtXV0tRY2trUWhsWUhvUVJzYyYjeEE7Vlg0cXhqV1B6UDhBeTUwYTdheTFYek5wbG5lSVNKTGFXNmhFcUVkblRseVg2UmlxWWVYL0FEZjVWOHh4dkpvT3NXZXFySC9lL1ZKNCYjeEE7NWlsZHZqQ0VsZnB4VlYxWHpMNWMwaVNPUFZ0VnM5UGtsQmFKTHE0aWdabEJvU29rWmFqRlVEL3lzUHlCL3dCVE5wWC9BRW5XMy9OZSYjeEE7S3I0ZlBua2FlYU9DRHpGcGtzMHJCSW9rdkxkbVptTkZWVkQxSko2REZVUnFmbXp5dHBWeUxYVk5ac2JDNUtoeEJjM01NTDhUVUJ1TCYjeEE7c3BvYWRjVlMyWDgwdnl4aGN4emViOUZqa0hWSDFHMFU3K3hreFZQZE4xYlN0VXQvckdtWHNGOWIxcDYxdEtreVY4T1NGaGlxRDFMeiYjeEE7ZDVVMHU1TnBxZXRXRmpkQUJqQmMzTU1NZ1Z1aDR1eW1oeFZDL3dES3cvSUgvVXphVi8wblczL05lS3UvNVdINUEvNm1iU3YrazYyLyYjeEE7NXJ4VjhJL24xK1c5eDVFL01PL3NraUs2UGZ1MTdvOHY3SmdsYXBqQjhZV0pROTlnZStLdm9yOG92K2Nqdkp0cCtUMXRMNWl2UFQxaiYjeEE7eTlISHB6NmVsR3Vicmd2RzJOdkhXcjgwVUt4NkJnUzFCdmlxSmY4QUs3emQrY1Y3YmE5K1phdm9IbDIzSmZSZktkcnhGMEZlbjd5OCYjeEE7dUdYa0daUnVnQVArb2ExVlcybWorYi95RldhVFRZRzh6ZmxoSkswOTVESEdpNnBwM0w3VXpNb1VYRVlBM0o3ZnlEY3FzUy81eWkvUCYjeEE7WHl6cmZreXk4citWYjZMVW90YkVWN3FOekVTUkZCRTRlS0ZoMVdWcFVCWlczWGp1UGl4VmgvOEF6aU4rVzF6cjNubi9BQlhkUkVhUCYjeEE7NWRxMGNoK3pKZk90STBIajZhc1pEVG9lUGppcjZiL1A3L3lUWG16L0FKZ1cvd0NKTGlyeC93RDV3Yy80NVhtNy9qUFpmOFFteFY4NyYjeEE7anpWclhsVDh5N3pYOUZuTnZxRmpxVnk4YmZzc1BWWU5HNC9hUjFxckR3eFY5OC9sZCtaR2kvbUQ1VHR0ZTAwaEpUKzcxQ3lKcTl2YyYjeEE7S0J6amJ4SGRXN3JRNHErV2ZMUC9BSzJUTi8yM05RLzVOVFlxOUo4MC93RE9IT202L3dDWjlYMTUvTkUxdStyWHR6Zk5BTFJXRVp1WiYjeEE7V2xLQnZWRmVQT2xhWXErZExYOHNZSi96bWI4dXpxRExDTlRrMDM5SSttQzFJeXc5VDArVk4rUFRsaXI2UThtLzg0Z2FkNVo4MTZUNSYjeEE7aFR6UE5kUHBWMUZkcmJ0YUtnY3hNRzRsaEsxSzA4TVZlSC9tSDVWazgyLzg1S2F2NWJqdVJhUHFtcW1CYmxsTGhDVUJxVkJXdlR4eCYjeEE7VjZGLzBJNXF2L1UzUWY4QVNFLy9BRld4Vm4zNUtmOEFPTlY5K1hIbkYvTU0rdlJha2oya3RwOVhTM2FFMWtaRzVjakkvVGg0WXErYiYjeEE7TER5TC9qdjgrZFM4cWZYdjBkK2tkVjFYL1RQUzlmaDZIcnovQU4zemk1Y3ZTNC9hSFd1S3ZYSi8rY0daeEM1Zzg1ckpNQWZUUjlOSyYjeEE7S1c3QXNMcHlCNzhUaXJGL3lFODIrY1B5NC9PQmZ5ODFlZG4wMjZ2RzA2OHNRNWtoanVXcUlyaUN2MmVUOGFtZzVLZmlGUUtLc3cvNSYjeEE7eXEvT3ZYTFhXRi9MM3l0Y1NXOHZCRHJWeGJFaWQzbkFNVnJHVitJRGd3WitPN2NnUEVGVktmSkgvT0YycTZqcGNGLzVzMW82VmN6cSYjeEE7SE9tVzBJbWxqRENvRXNyTUZEK0toVDg4Vlh0L3ppTitZdmx6emRwVjM1Ujh5SWJVekQxdFhVRzF1Yk5SOFRNWWc3K3FEVGlBcmZFZCYjeEE7bUFXcHhWQ2Y4NXJSeVIrWXZLc2NzcG5sVFRwRmVaZ3FzN0NVQXNRb0Nnc2Q5aFRGWGFCL3pobHFlc2FGcHVyTDVwaGhYVWJXRzdXRSYjeEE7MmJzVUU4YXljU2ZWRmFjcVlxeUR5NS96aGxxZWorWWRMMVp2Tk1NeTZkZHdYYlFpemRTNGdsV1RpRDZwcFhqVEZXQi84NWsvK1RjaCYjeEE7L3dDMlZiZjhuWnNWWnIvMEl4LzMrMy9jci83UE1WZVphN29mNWdmODQrZm1IWlQyMThKNDVsV2VHYUV1bHZlMjZ2U1NDZU05L0ZkKyYjeEE7TlF3UFRGWHYzNWdmODQ3NlIrYk9zV3ZuaVB6QkxwOE9wMk5xOEZ1dHNzdjdzeGhrYmtaRTZxL2hpcjVpL092OHNZUHk0ODRwNWVoMSYjeEE7QnRTUjdTSzcrc1BHSVRXUm5YanhEUDA0ZU9LdmQvOEFvUnpTditwdW4vNlFrLzZyWXF6L0FQNXlsMC95TmNmbGRkWEhtZC9SdTdacSYjeEE7NkRQR0ZhNCt1dVBoampCSzhrY0wrOEZmc2psMVVZcStNZE9tODIvbDE1djAzVTVyRTJPczJCaHZyYTN2b2FxeVNMeVFsSEhSbGJxTiYjeEE7MVBRaGhzcSs3ZnlpL09yeXIrWkdsQ1N4a0ZucmNDQTZobzByQXl4bm9Yak8zcVIxL2FIVDlxaHhWaW41OGY4QU9SdWkrUnJXZlE5QiYjeEE7a2oxSHpmS3BVb0tQRFpWMjUzSFl5Znl4ZlMxQlRrcStLN0hSOVkxZ1grb3cyczl4YVdJRnpxMTFieGMxZ2lra0NsMlVjRkh4TnNLaiYjeEE7N2dhS3YwTy9KL1N2SmVtZmwzbzBQazExbTBTV0VUSmQ3ZXBQSzM5N0pOVC9BSGFYQkRBL1pweDJBQXhWQmZuOS93Q1NhODJmOHdMZiYjeEE7OFNYRlhqLy9BRGc1L3dBY3J6ZC94bnN2K0lUWXE4MC9Kbnl2bzNtbjg3dGQwRFdZUFgwNi9qMVdPWmVqS2VaS3VoMzR1alVaVDJPSyYjeEE7cjlKMUR6Yi9BTTQ2L216TGFYcXZkNkpjMEZ3cWppbDdZTXg0VFJnN0NXUGZhdXpWV3REWEZWZnlGcTJuNngvemxwRHEyblRDNHNMLyYjeEE7QUZhOXVMV1lWQWFPV0NabE5EdU5qME9LdnVERlh4QnBuL3JZRC84QWdTWEgvRW54Vjl2NHErQmZ6THUvTTlwL3prYnJWejVXV1J2TSYjeEE7TVdxRnROV0dKWjVETHdGT01icTZzYWRpcHhWbUgrT1ArYzB2K1diVmYrNFBaLzhBWk5pcjFML25IN3pGK2Z1cCtaZFJoL01pSzlqMCYjeEE7cExMblptNnNZTFJmckhxb05uaWhpTEhnVzJyaXI1dXNQUFgrQlB6NTFMelg5Ui9TUDZPMVhWZjlEOVgwT2ZyK3ZCL2VjSmVQSDFlWCYjeEE7MlQwcGlyMTJYL25PYVV4T0lmSmFwS1FlRHZxUmRRM1lsUmFvU1Bhb3hWakg1RWVVUE9YNWkvbkN2NWlheGJORnBsdmVQcWQxZThHaiYjeEE7aGt1QlV3d1c5ZnRjVzQxM05GRzVxUlZWRFdjZHZkZjg1aHN1cWZGR1BNTXJKNm44OFhJMnczL3kwVGppcjdjeFYyS3ZrRC9uTjcvbCYjeEE7S3ZMWC9NRE4vd0Fuc1ZTZlJQT2YvT1gwT2pXRU9rMitwblNvN2FGTEFwcE5vNm0zV01DTGk3V3pGaHdwUWs3NHF5Mzh2L09IL09XTiYjeEE7ejUzME8zOHh3YWt1Z3kzc0thbTB1bDJzS0MzTGdTY3BGdDBaUng3Z2pGV0ZmODVrL3dEazNJZisyVmJmOG5ac1Zld2Y5RHEvbFovMSYjeEE7YXRjLzZSN1Avc3J4VjRiK2F2bi9BRmo4OC96QTBuVGZMZWx5Und4QTJ1bFdzbERNeGxZTkxOT1U1S2lnS0swSkNxdGE0cSs0UExtaiYjeEE7UmFKNWUwdlJZVzV4YVphUVdjYmRLcmJ4TEdEOXk0cStNZjhBbk1uL0FNbTVELzJ5cmIvazdOaXI3ZnhWOFYrY3Z6UjBIenQvemtWcCYjeEE7Sjh3M0t4K1J0QjFENnJiTEtmOEFSeUlXTlo1TzNHYWRGNUVqKzdvRDBPS3ZXL3o1OHhmODQ3ZVovTHYxZnpCNWlzNWRTaFJuMHErMCYjeEE7bGx2cnVKeUtoUjZITmVEOTBrWlZQaURSZ3ErTUxQVXIzU3RUVzkwYTl1TFM0dDNZMnQ3Q3pXODZqY0JnWTJKUWxldEcrbkZWK2p3NiYjeEE7YmVhemJSNnpleVdXbnpTajY3ZkpFYmlTTkR1emlQa3BjL1RpcjdsOGhlWWYrY2NOQjhpU2FMb212NlN1aVR3dXVvTGVYRWNWM2RCMCYjeEE7NHlOY1J5K2xNN09wcFRnUDVWQUZCaXJ4di9uRkQ4eTAwZnoxZWVSdlhhWHk5clVzMG1qdEpVR080akJLSGVsUFdoU2gvd0FvTGlyNiYjeEE7Ri9QNy93QWsxNXMvNWdXLzRrdUt2SC8rY0hQK09WNXUvd0NNOWwveENiRldGZjhBT04vL0FLMGRxSC9iMC80bWNWZlN2NTAvbE5wdiYjeEE7NWtlVXBOT2s0UWF4YWNwdEd2bUg5M05UZEdJMzlPV2dWL29QVURGWHlEK1ErajZub3Y4QXprRm9HazZwYnRhNmhaWGx4RGRXNy9hUiYjeEE7MHQ1UVI0SDJJMlBiRlgzN2lyNGcwei8xc0IvL0FBSkxqL2lUNHErMzhWZkJ2bnZ6Vkg1Uy93Q2NtdFY4eVNXeHUwMHZWak8xc3JDTSYjeEE7dUJHQlFNUTFPdmhpcjFQL0FLSGowci9xVVovK2sxUCtxT0tzMy9LSC9uSld4L01melcvbDZIUVpkTmRMV1M3K3NQY3JNS1JzaThlSSYjeEE7alRyejhjVmVBZmxicDJuNmovemxTOW5xRnRGZVdjdXE2MTZ0dGNJc3NiY1lidGw1STRLbWpBRWUrS3ZhZitjaFArY2M5TDh4NkgrbSYjeEE7L0p1blFXUG1EVFkyTFdOcEdzTWQ1Q3RXS0JJMUE5WmYyRCsxOWs5cUtzZS81eGgvUHQ1RGIvbDU1dm1NZDdEL0FLUG9WOVBVRnVOUiYjeEE7OVRtTGRIV2xJcTlmc2RlTlZVai9BT2NxL3dBcnRmMGJ6Y3Y1bWVYMGsrcHpORExmelc0UE8wdkxmaXNjNXAwUitDbmwyZnIxR0tzaiYjeEE7OG1mODVxZVhuMHlHSHpocE4zRHFhS0ZtdTlPV09XQ1FnZmI0U1BFOGZMK1Vjdm40S29IVy93RG5OVjV0ZTArRHl4NWRrbDB2MTFGNCYjeEE7dDRSOWJ1RWI0ZlRoamhMcEc5VFVIazlUdFRGV1AvOEFPYUYxOWMxenlqZCtqTGIvQUZqVEhsOUNkZUVzZk9RTndrVGZpNjFvdzdIRiYjeEE7VTI4dWY4NW02Wm8vbDdTOUpieXJOTTJuV2tGbzB3dkVVT1lJbGo1QWVrYVY0MXhWa0dnZjg1bTZackd1NmJwSytWWm9XMUc2aHRGbSYjeEE7TjRqQkRQSXNmS25wQ3RPVmNWZVlmODVrL3dEazNJZisyVmJmOG5ac1ZmU3YvUXQzNUpmOVN0Qi95T3VmK3F1S3NwOHAvbDc1SjhvcCYjeEE7SXZsdlJyWFRES0Fzc3NLZnZYVWRBOHJjcEdIc1d4VmtPS3ZpRC9uTW4veWJrUDhBMnlyYi9rN05pcjdmeFYrY2ZtcjhsL3pNOHU2eiYjeEE7Y2FkZGVYNys1RWJzSWIyMXRwWjRKa0IyZEpJdzY3aWhwV283NHFtbmxiL25ISDg0UE1VcUxGb0UybVc3ZmF1dFUvME5GSGlVa0hySCYjeEE7L1l4bkZYMEYrWEgvQURoMzVUMFpvNzd6amMvcCsvWDRoWXg4b3JGRC9sZEpKdnBLcjJLbkZVdC9NZjhBNXd6MG05ZVMrOGlYNDAyWiYjeEE7aVdPazN4ZVMyMzdSVEFOTEg4bUQvTVlxOEI4eC9rTitidmwrVmt2ZkxGN1BHQ2FYRmluMTJJaitibGIrcHhIK3RURldVZmtMK1VINSYjeEE7aVhuNWs2RnFrMmpYbW1hWnBONUZlWGw5ZVF2YnB4Z2JuNmFlcUZMczlPTkZyU3U5TVZmY1dzYVBwbXM2WmNhWHFsdWwzcDkybnAzTiYjeEE7dEp1am9kNkdtS3BiNVU4aWVVUEtVZHpINWIwcURTMHV5clhLd0FnT1l3UXBOU2VuSTRxaGRFL0xEeUJvV3R2cm1rYUhiV2VyU2VweiYjeEE7dkl3d2tQcW1zblVuN1hmRldVWXFrTng1RThuM0htZUh6Vk5wTnUvbUszQVdMVStOSmdBcFFianI4TEZkKzJLcDlpckZZL3lzL0wyUCYjeEE7eklmTXlhRmJMcnhuYTZPb2dONnZyTlVsNjFwVTF4VmxXS3NMMWo4bWZ5dDFuVTdqVk5VOHQybDNxRjIvcVhOeklyRjNjN1ZOR3hWQyYjeEE7ZjhxQi9Kci9BS2xPeC80RnYrYXNWVFh5eitWbjVlK1Y5Uk9wZVg5Q3R0T3Z6RzBKdUlRd2IwMklMTHVUc1NveFYybS9sWitYdW1lWSYjeEE7djhTV0doVzF2cm5xU3pmcEJBM3FlcGNCbGxhdGFWY1NOWDU0cXlyRldGNnArVEg1V2FwcWsrcTMvbHF5bTFDNWs5V2U0NEZXYVE5WCYjeEE7UEVxT1JPNVBqdmlyTTNSSkVhT1JRNk9Dcm93cUNEc1FRY1ZlZGF4L3pqdCtTMnIzVFhWNTVXdGxtWTFiNnJKUFpvU2Y4aTJraFQ4TSYjeEE7VlRieWwrVVA1YWVVWnhjK1gvTDlyWjNhN0pkc0dubld2WGpOTzBraTE5bXhWR2Vhdnk0OGplYkxpQzQ4eDZOYjZuUGJJWTRKSndTVSYjeEE7UmpVZ1VJNzRxa24vQUNvSDhtditwVHNmK0JiL0FKcXhWVnMveU4vS1N5dklMeTE4cjJVTjFiU0pOQktxdHlTU05neXNQaTZnaXVLcCYjeEE7aDVtL0t6OHZmTkdvalV2TUdoVzJvMzRqV0VYRXdZdDZha2xWMkkyQlk0cXlyRlhZcTdGV0srWnZ5cy9MM3pScUkxTHpCb1Z0cU4rSSYjeEE7MWhGeE1HTGVtcEpWZGlOZ1dPS3NxeFYvLzlrPTwveG1wR0ltZzppbWFnZT4KICAgICAgICAgICAgICAgPC9yZGY6bGk+CiAgICAgICAgICAgIDwvcmRmOkFsdD4KICAgICAgICAgPC94bXA6VGh1bWJuYWlscz4KICAgICAgICAgPHhtcE1NOlJlbmRpdGlvbkNsYXNzPmRlZmF1bHQ8L3htcE1NOlJlbmRpdGlvbkNsYXNzPgogICAgICAgICA8eG1wTU06T3JpZ2luYWxEb2N1bWVudElEPnV1aWQ6NjVFNjM5MDY4NkNGMTFEQkE2RTJEODg3Q0VBQ0I0MDc8L3htcE1NOk9yaWdpbmFsRG9jdW1lbnRJRD4KICAgICAgICAgPHhtcE1NOkRvY3VtZW50SUQ+eG1wLmRpZDpkODRlMWFlNy03MmNmLWM2NDQtOTJmMi02ZTQzNWQ2MDhhNGE8L3htcE1NOkRvY3VtZW50SUQ+CiAgICAgICAgIDx4bXBNTTpJbnN0YW5jZUlEPnhtcC5paWQ6ZDg0ZTFhZTctNzJjZi1jNjQ0LTkyZjItNmU0MzVkNjA4YTRhPC94bXBNTTpJbnN0YW5jZUlEPgogICAgICAgICA8eG1wTU06RGVyaXZlZEZyb20gcmRmOnBhcnNlVHlwZT0iUmVzb3VyY2UiPgogICAgICAgICAgICA8c3RSZWY6aW5zdGFuY2VJRD54bXAuaWlkOjlkYTU0YWI1LWI4YTAtNTU0OS05MWI5LTRiZjkyZWFmNDEyMDwvc3RSZWY6aW5zdGFuY2VJRD4KICAgICAgICAgICAgPHN0UmVmOmRvY3VtZW50SUQ+eG1wLmRpZDo5ZGE1NGFiNS1iOGEwLTU1NDktOTFiOS00YmY5MmVhZjQxMjA8L3N0UmVmOmRvY3VtZW50SUQ+CiAgICAgICAgICAgIDxzdFJlZjpvcmlnaW5hbERvY3VtZW50SUQ+dXVpZDo2NUU2MzkwNjg2Q0YxMURCQTZFMkQ4ODdDRUFDQjQwNzwvc3RSZWY6b3JpZ2luYWxEb2N1bWVudElEPgogICAgICAgICAgICA8c3RSZWY6cmVuZGl0aW9uQ2xhc3M+ZGVmYXVsdDwvc3RSZWY6cmVuZGl0aW9uQ2xhc3M+CiAgICAgICAgIDwveG1wTU06RGVyaXZlZEZyb20+CiAgICAgICAgIDx4bXBNTTpIaXN0b3J5PgogICAgICAgICAgICA8cmRmOlNlcT4KICAgICAgICAgICAgICAgPHJkZjpsaSByZGY6cGFyc2VUeXBlPSJSZXNvdXJjZSI+CiAgICAgICAgICAgICAgICAgIDxzdEV2dDphY3Rpb24+c2F2ZWQ8L3N0RXZ0OmFjdGlvbj4KICAgICAgICAgICAgICAgICAgPHN0RXZ0Omluc3RhbmNlSUQ+eG1wLmlpZDowMDdmNmNmYS1jM2I5LTQ1YjEtOTBiOC1iNDFkMWZhYzRjNTU8L3N0RXZ0Omluc3RhbmNlSUQ+CiAgICAgICAgICAgICAgICAgIDxzdEV2dDp3aGVuPjIwMjEtMDgtMTFUMDk6NTk6MDQrMDI6MDA8L3N0RXZ0OndoZW4+CiAgICAgICAgICAgICAgICAgIDxzdEV2dDpzb2Z0d2FyZUFnZW50PkFkb2JlIElsbHVzdHJhdG9yIDI1LjQgKE1hY2ludG9zaCk8L3N0RXZ0OnNvZnR3YXJlQWdlbnQ+CiAgICAgICAgICAgICAgICAgIDxzdEV2dDpjaGFuZ2VkPi88L3N0RXZ0OmNoYW5nZWQ+CiAgICAgICAgICAgICAgIDwvcmRmOmxpPgogICAgICAgICAgICAgICA8cmRmOmxpIHJkZjpwYXJzZVR5cGU9IlJlc291cmNlIj4KICAgICAgICAgICAgICAgICAgPHN0RXZ0OmFjdGlvbj5zYXZlZDwvc3RFdnQ6YWN0aW9uPgogICAgICAgICAgICAgICAgICA8c3RFdnQ6aW5zdGFuY2VJRD54bXAuaWlkOmQ4NGUxYWU3LTcyY2YtYzY0NC05MmYyLTZlNDM1ZDYwOGE0YTwvc3RFdnQ6aW5zdGFuY2VJRD4KICAgICAgICAgICAgICAgICAgPHN0RXZ0OndoZW4+MjAyMS0wOC0xMlQwODozOTo0MyswMjowMDwvc3RFdnQ6d2hlbj4KICAgICAgICAgICAgICAgICAgPHN0RXZ0OnNvZnR3YXJlQWdlbnQ+QWRvYmUgSWxsdXN0cmF0b3IgMjUuNCAoV2luZG93cyk8L3N0RXZ0OnNvZnR3YXJlQWdlbnQ+CiAgICAgICAgICAgICAgICAgIDxzdEV2dDpjaGFuZ2VkPi88L3N0RXZ0OmNoYW5nZWQ+CiAgICAgICAgICAgICAgIDwvcmRmOmxpPgogICAgICAgICAgICA8L3JkZjpTZXE+CiAgICAgICAgIDwveG1wTU06SGlzdG9yeT4KICAgICAgICAgPGlsbHVzdHJhdG9yOlN0YXJ0dXBQcm9maWxlPldlYjwvaWxsdXN0cmF0b3I6U3RhcnR1cFByb2ZpbGU+CiAgICAgICAgIDxpbGx1c3RyYXRvcjpDcmVhdG9yU3ViVG9vbD5BZG9iZSBJbGx1c3RyYXRvcjwvaWxsdXN0cmF0b3I6Q3JlYXRvclN1YlRvb2w+CiAgICAgICAgIDxwZGY6UHJvZHVjZXI+QWRvYmUgUERGIGxpYnJhcnkgMTYuMDA8L3BkZjpQcm9kdWNlcj4KICAgICAgICAgPHBkZng6Q3JlYXRvclZlcnNpb24+MjEuMC4wPC9wZGZ4OkNyZWF0b3JWZXJzaW9uPgogICAgICA8L3JkZjpEZXNjcmlwdGlvbj4KICAgPC9yZGY6UkRGPgo8L3g6eG1wbWV0YT4KICAgICAgICAgICAgICAgICAgICAgICAgICAgICAgICAgICAgICAgICAgICAgICAgICAgICAgICAgICAgICAgICAgICAgICAgICAgICAgICAgICAgICAgICAgICAgICAgICAgIAogICAgICAgICAgICAgICAgICAgICAgICAgICAgICAgICAgICAgICAgICAgICAgICAgICAgICAgICAgICAgICAgICAgICAgICAgICAgICAgICAgICAgICAgICAgICAgICAgICAgCiAgICAgICAgICAgICAgICAgICAgICAgICAgICAgICAgICAgICAgICAgICAgICAgICAgICAgICAgICAgICAgICAgICAgICAgICAgICAgICAgICAgICAgICAgICAgICAgICAgICAKICAgICAgICAgICAgICAgICAgICAgICAgICAgICAgICAgICAgICAgICAgICAgICAgICAgICAgICAgICAgICAgICAgICAgICAgICAgICAgICAgICAgICAgICAgICAgICAgICAgIAogICAgICAgICAgICAgICAgICAgICAgICAgICAgICAgICAgICAgICAgICAgICAgICAgICAgICAgICAgICAgICAgICAgICAgICAgICAgICAgICAgICAgICAgICAgICAgICAgICAgCiAgICAgICAgICAgICAgICAgICAgICAgICAgICAgICAgICAgICAgICAgICAgICAgICAgICAgICAgICAgICAgICAgICAgICAgICAgICAgICAgICAgICAgICAgICAgICAgICAgICAKICAgICAgICAgICAgICAgICAgICAgICAgICAgICAgICAgICAgICAgICAgICAgICAgICAgICAgICAgICAgICAgICAgICAgICAgICAgICAgICAgICAgICAgICAgICAgICAgICAgIAogICAgICAgICAgICAgICAgICAgICAgICAgICAgICAgICAgICAgICAgICAgICAgICAgICAgICAgICAgICAgICAgICAgICAgICAgICAgICAgICAgICAgICAgICAgICAgICAgICAgCiAgICAgICAgICAgICAgICAgICAgICAgICAgICAgICAgICAgICAgICAgICAgICAgICAgICAgICAgICAgICAgICAgICAgICAgICAgICAgICAgICAgICAgICAgICAgICAgICAgICAKICAgICAgICAgICAgICAgICAgICAgICAgICAgICAgICAgICAgICAgICAgICAgICAgICAgICAgICAgICAgICAgICAgICAgICAgICAgICAgICAgICAgICAgICAgICAgICAgICAgIAogICAgICAgICAgICAgICAgICAgICAgICAgICAgICAgICAgICAgICAgICAgICAgICAgICAgICAgICAgICAgICAgICAgICAgICAgICAgICAgICAgICAgICAgICAgICAgICAgICAgCiAgICAgICAgICAgICAgICAgICAgICAgICAgICAgICAgICAgICAgICAgICAgICAgICAgICAgICAgICAgICAgICAgICAgICAgICAgICAgICAgICAgICAgICAgICAgICAgICAgICAKICAgICAgICAgICAgICAgICAgICAgICAgICAgICAgICAgICAgICAgICAgICAgICAgICAgICAgICAgICAgICAgICAgICAgICAgICAgICAgICAgICAgICAgICAgICAgICAgICAgIAogICAgICAgICAgICAgICAgICAgICAgICAgICAgICAgICAgICAgICAgICAgICAgICAgICAgICAgICAgICAgICAgICAgICAgICAgICAgICAgICAgICAgICAgICAgICAgICAgICAgCiAgICAgICAgICAgICAgICAgICAgICAgICAgICAgICAgICAgICAgICAgICAgICAgICAgICAgICAgICAgICAgICAgICAgICAgICAgICAgICAgICAgICAgICAgICAgICAgICAgICAKICAgICAgICAgICAgICAgICAgICAgICAgICAgICAgICAgICAgICAgICAgICAgICAgICAgICAgICAgICAgICAgICAgICAgICAgICAgICAgICAgICAgICAgICAgICAgICAgICAgIAogICAgICAgICAgICAgICAgICAgICAgICAgICAgICAgICAgICAgICAgICAgICAgICAgICAgICAgICAgICAgICAgICAgICAgICAgICAgICAgICAgICAgICAgICAgICAgICAgICAgCiAgICAgICAgICAgICAgICAgICAgICAgICAgICAgICAgICAgICAgICAgICAgICAgICAgICAgICAgICAgICAgICAgICAgICAgICAgICAgICAgICAgICAgICAgICAgICAgICAgICAKICAgICAgICAgICAgICAgICAgICAgICAgICAgICAgICAgICAgICAgICAgICAgICAgICAgICAgICAgICAgICAgICAgICAgICAgICAgICAgICAgICAgICAgICAgICAgICAgICAgIAogICAgICAgICAgICAgICAgICAgICAgICAgICAgICAgICAgICAgICAgICAgICAgICAgICAgICAgICAgICAgICAgICAgICAgICAgICAgICAgICAgICAgICAgICAgICAgICAgICAgCiAgICAgICAgICAgICAgICAgICAgICAgICAgIAo8P3hwYWNrZXQgZW5kPSJ3Ij8+/+AAEEpGSUYAAQIBAEgASAAA/+0ALFBob3Rvc2hvcCAzLjAAOEJJTQPtAAAAAAAQAEgAAAABAAEASAAAAAEAAf/bAIQAEAsLCwwLEAwMEBcPDQ8XGxQQEBQbHxcXFxcXHx4XGhoaGhceHiMlJyUjHi8vMzMvL0BAQEBAQEBAQEBAQEBAQAERDw8RExEVEhIVFBEUERQaFBYWFBomGhocGhomMCMeHh4eIzArLicnJy4rNTUwMDU1QEA/QEBAQEBAQEBAQEBA/90ABAA8/+4ADkFkb2JlAGTAAAAAAf/AABEIAI0DuAMAIgABEQECEQH/xAGiAAACAwEBAQADAQAAAAAAAAAABgMEBQcCAQgJCgsBAQEAAwAABwAAAAAAAAAAAAAEAQMFAgYHCAkKCxAAAQMBAgQIDAYKcwAAAAAAAQACAwQFEQYSITEjNUFhcnORshMUFRYiQlFSVJLB0mJxgYKx0TM0Q2SToaOzwuMHCAkKFxgZGiQlJicoKSoyNjc4OTpERUZHSElKU1VWV1hZWmNlZmdoaWp0dXZ3eHl6g4SFhoeIiYqUlZaXmJmaoqSlpqeoqaq0tba3uLm6w8TFxsfIycrT1NXW19jZ2uHi5OXm5+jp6vDx8vP09fb3+Pn6EQABAQECBQI5XQAAAAAAAAAAAQIDERIxQVFxBDIFBgcICQoTFBUWFxgZGiEiIyQlJicoKSozNDU2Nzg5OkJDREVGR0hJSlJTVFVWV1hZWmFiY2RlZmdoaWpyc3R1dnd4eXqBgoOEhYaHiImKkZKTlJWWl5iZmqGio6SlpqeoqaqxsrO0tba3uLm6wcLDxMXGx8jJytHS09TV1tfY2drh4uPk5ebn6Onq8PHy8/T19vf4+fr/2gAMAwAAARECEQA/AHG07UjoWhoGPO4XtZqAc1yXai066oJL5XBp5RpxW7gXisqHVNVJMTfjOOLsRkA3FAonR1aaVXleQjdHVWlV5XkPpJJvOUr6172G9ji06xuXlC1mstxWpaEXmyd51nHGHzK9XoMJJ25J4myDmt5E9ULGQvEjo2kJpTxI6NpCVRsprZoKi4Y/A3HlZOR8HmV4EEXjKCkVWaW0KulOgyEN5w5W7hW5mVGDJuBtZlRgybgOKFj0mEMElzapvAnc+MrO7C12PZI0PjcHNOZwN4K3ststQlfN7LbLUJXz6hCF4jxAhVq20qGz2Y9XM2K8XtaTe52xaMpStaWG8r747Ni4G31GlALu0bmHa3oBvmnhp4zJPI2KMZ3PIaN0rCrcM7Lp7204dVPHO8gzpnZfBJIqayqq5OCVUrpn81xvu7LmKFAMNVhpasxIgDKZupijHduvvHgllT2valQTwarlcDyuOQ3pRcFTQgPpJcb3G880r1HLJE7Gie5jua0kHwS8IQG3ZuFdqUTg2V5qoNVkhvdd2F+fdvTzZ9oU1o0raqmdex2Qg52uGdrtdcrTLgTWOjtCSkJ0OdhcB2NmW/cvQDwhCEAIQhACEIQAhCEAIQhACEIQAhCEAIQhACEIQAhCEAIQhACEIQAhCEAIQhACEIQAhCEAIQhACEIQAhCEAIQhACEIQAhCEAIQhACEIQAhCEAIQhACEIQAhCEAIQhACEIQAhCEAIQhACEIQAhCEAIQhACEIQAhCEAIQhACEIQAhCEAIQhACEIQAhCEAIQhACEIQAhCEAIQhACEIQAhCEB//9CYggkHOMhXxW7VgMFfMzlXOx29k7Kqi56o8qpGOeqPKqRgQhCwYGSyrIp2QMnqGCSV4DgHZQ0HNk5q1QxgFwaAOZdkUdK8SU0L25nMafBKVXsMoiI8hewyiIjyEMtDRzd5IWO18UA7oyrPqMHaSS8wOdCeZ5ub4PL4NayEVhlYaIFYZWGiCpVWNXU17sTgrBy0eXdGdV6WtqaR2NA8t5rc7T2YTmljCa07IgxomME1fqmM3Bh9fCM/ZZ+yWlpweprCvGlpweprCvGhTYRUjoyawinc0Xl2UsPZavaLFtbDWR+NDZbcRuY1DxyR2DdTtdwJYlmmqHgvJceVaM3aBW6WzC5zXVN7Y78rGkB5HZm8BbEagGUno0j5tRqBZSejSPlRzqmrnvcXzzyHVve9x8GStyz8DbRqQH1ThSRnUcMaTpRm7UppsWKyI4fKujbG666S/vL25xynuFprxoqKj6U08SKio+lNMSkwQsemAMjHVLxy0pydK24bq1YqGigGLDTxxjmNY0dwFMhZMkc1LTTgtnhZKDnD2h3cpJwqsCCzsSsoxi08rsR8ecMfdeLr9Q3J6S9htK1lksjN2NJM24atzQ4koBDQhCAFt4IMLrdgIzMbI49liFvVWImzAWkJmqa1wyNaImHXccZ25cN1AOKEIQAsy1MIKGypmQ1QkL3txxiNBF15GqRzFppIw60xp9p8ScgNfj1sfnZukHXK1Z2EtnWlUilpxIJCC7k2gC4duK5wt7A3Ttu1v7hAP6EIQC/x62Pzs3SDrl9bhpYznAHgrQTdjFguGubnJBQgOuNc17Q9hDmuALSMoIOqF9Sdgjb3A3NsurdyDjdTPOoT3zPZ6m4nFACEIQAq9oV0NnUclZMHOjixcYMALuScGC68gZyrCyMK9IKr3r8OsQFTj5sn1BqOlZ+OI4+bJ9QajpWfjiREIDrUErZ4Y5mAhsrWvaDnucLxeqFqW9Q2VJHHVB5dIC5uI0HIDdqkK1Zul1LtMe9CU8O+9ul2t2+QGpx62Pzs3SDrkcetj87N0g65ISEA+8etj87N0g65HHrY/OzdIOuSEhAPvHrY/OzdIOuRx62Pzs3SDrkhIQD7x62Pzs3SDrkcetj87N0g65ISEA+8etj87N0g65aVl2vSWrHJJSh4bGQ12OAMpF+oSuYJ1wE71KrbG71AMFfWw2fSSVc+MYo7sbFF55JwaOZqlY/HrY/OzdIOuVnCvSCq96/DrFzlAPvHrY/OzdIOuRx62Pzs3SDrkhIQD7x62Pzs3SDrkcetj87N0g65ISEA+8etj87N0g65HHrY/OzdIOuSEhAPvHrY/OzdIOuUtLhbZVVUR00Ql4JK4Mbe0AXnJl5Jc9V+w9OKLbmdygOnKja1r01kwsmqWve2R2IBGATfcTyzm8xXktYdaXU+3eIuQEjcOLIJuMc7dctZ1JCvvHrY/OzdIOuSEhAPvHrY/OzdIOuRx62Pzs3SDrkhIQD7x62Pzs3SDrl9GGtjE3ETDXLB1HJBQgOk0+E1iVBDW1TWOOpIDH4NwA8GtNrmvaHMIc05Q4G8ELkau2fa1fZr8allLW33ujOVjuzb/QoDqCFk2HhDTWszEI4FVtF74ic455h1QtZACEIQAhDnNa0ucQ1rReScgAGqUo23hiQ51NZV2TI6pIv8Bg9yUAz1ddR0TMeqmZC3UxjlPZDOe0WJU4b2ZES2njknI5a4Maemy+CSRNNNPIZZ3ukkdne4kk9qVGgGt+Hk5Oh0bGjsTy7uGtUbcOq+/kqaIjWLh1SlhCAcoMO4ibqmkc0c9G8O+YuDe5W1Q4QWTXkNhnDZDmjk5B1/MF+Q9ouZoQHXULntkYU19nlscxNTTZix55Jo7A7qJ5s+0aS0acVFK/Gbmc05HNPMcNQoCysSqwtsqlqJKaUS8EicWOuaCLxkyckttcxtzTit25/coBu49bH52bpB1yOPWx+dm6QdckJCAfePWx+dm6Qdcjj1sfnZukHXJCQgH3j1sfnZukHXI49bH52bpB1yQkIB949bH52bpB1yOPWx+dm6QdckJCA6rQVsNoUkdXBjCKS/FxhceRcWnm6oU7nBrS45gLz2iycFNIKX3s8OvWrN3hfsT3CAwePWx+dm6Qdcjj1sfnZukHXJCQgH3j1sfnZukHXI49bH52bpB1yQkIB949bH52bpB1y8jDiyCbuBVAHNxWXeHEiIQHQosMLEkIDpHxX6r2G75hjLVpa2krG49LMyYDPiOBI7Mai5QvcU0sMglhe6ORvm17SWkdqEB1pCUrCwvL3NpbUIBORlTmF/r4Or/Wm1AeZHtjjdI7zawFxu5gF6wePWx+dm6Qdctus71J9rfvSuToB949bH52bpB1yOPWx+dm6QdckJCAfePWx+dm6Qdcjj1sfnZukHXJCQgH3j1sfnZukHXI49bH52bpB1yQkIB949bH52bpB1yOPWx+dm6QdckJCAf48MrIkkbG1s2M8hovYM5N3PK9xbo+Y/cHdrnFH3twbYzfBNKA//0WbCKkx4mVTBlj5F+xObcKXk8SRsljdG8XseC1w1ik6tpH0dS+B+pla7mtOYqV3YeWCSLDkkruw8sEkWHJIEIQtBoGTB6rElOaZx5OE3tHNYe6K1kl0lS+kqGTsztOUc0HOE4wTRzxNmjN7Hi8FVuDb7Lyw2eYK3Ft9l6KzzB7XiaeGnidNO8RxMF7nuNwCrWnatJZcHBql1xN/A4x5ueRqNCQLWtqtteYcEOLEDoUDfNo7t2utxuNS3MLpqnGprOJhgzOmzSP7LnR4NZtkWBXWs/GjHA6cHk53jke288Vs2FggXYtVagIGdlNmJ2zmdlu8xN7GMjYGRtDWNFzWgXAAcwIDOsqwLPssXwsx5yOSnflf2nOjsl8r7Dgqb5ILoZs+TzY7sxqLTQsNMo0jyo+YaZRpHlR8TZIqugnGNjRStytcNXsjqrcs23I57oaq6OXMH5mu7orRqKaCqjMU7Q5pzc0HmgpatGyJqImRl8lPz+q3Zd2p1ZbclfZprMVCdWW3JX2aazGGpCWrMtqSmuhqb3wZg7O5ndhMkcjJWCSNwcx2UOGUFbmHRG0pm4G5h0RtKZuB9SDhfaTay0RBEb4aQFl+oZCeTPggO0TNhLbIsyiLY3eUucFsI1Wjln9pqa653nXjPGfEIQgPoBJAAvJyABdNsSzxZ1mw0xGiXY8uzdlduZkqYH2Qaqs4elGgUx5C/M6XU6XPuJ6QAhCEAJIw60xp9p8ScndJGHWmNPtPiTkAsrewN07btb+4WCt7A3Ttu1v7hAP6EIQHIkIQgPoJBvGdP2C9vC0YOFah3lMhGc99GDluzGrupAUtNUzUs7KiBxZLGcZrggOsIVCxrWhtWjE7ORkbyM0fOu7o6ivoAWRhXpBVe9fh1i11kYV6QVXvX4dYgOcoQhAdVs3S6l2mPehYGFlj2laNRTvo4eCtYwhxxmNuJN/LuC37N0updpj3oVhAc641Lf6F8KRdejjUt/oXwpF166KhAc641Lf6F8KRdes6so6mhndTVTOBzNuJbeHZxeMrSQurLnuF+ns2xj3gQGIrVDZtbaMjoqOPgr2NxnDGa24X3cuQqqZsBdMajafEmoCjxqW/0L4Ui69HGpb/QvhSLr10VCA51xqW/0L4Ui69M+CdmV1nU9Qysi4E57wWjGa68AXcoSt5CAyMK9IKr3r8OsXOV0bCvSCq96/DrFzlACsizrQIvFLNdtbu6VZdbh7ws2I7hAct4m2j0LN4Dd3SOJto9CzeA3d0uqIQHK+Jto9CzeA3d0jibaPQs3gN3dLqiEByvibaPQs3gN3dK7YtBXMtaje+mlaxszC5xY4AC/VJC6OhACWsOtLqfbvEXJlS1h1pdT7d4i5AI69MY6R7Y2DGe8hrQNUnIAvKs2bpjS7dHvggLPG9bfQcm4O7RxvW30HJuDu10tCA5pxvW30HJuDu15fYFssGMaOUjWbjHcbeumoQHJHsfG4skaWOGdrhcR2hXldPtSyKO1IDHUMAkA0OYDk2HWPM1lzetpJaGqlpZhokTsU3ZjzCNYjKgPNPUTU0zJ4HFksZxmuGoV0yyLRjtOgjqmZHOF0jedePNwXLk1YC1bm1FRRE8i9olaOY5pxTug+CQDmhCxMK7VNn2fwKJ11RVXsYRna3l3dRAYWFOELqqR1n0j7qVhuleO+jhqbEeDS0hCAFNTUlVVv4HTRPmfqhjS67s7lu4PYLurwKutvZS52MGR0uvfqNTtT01PSxCGnjbFG3M1ouCAQ4cDrblALmMhv5948QxlK7Ai1wLxJA7WDn9WMJ7QgObVeDls0gLpKZzmDlo7pB8xvKzF1xZVr4O0Fptc4tENTqTsFxJ7GOWQHN04YIWLWQvFpTPdDE9tzIRkMgOZzxzOZ/S/wC2Jge6GoM9p4rxE7QogcZr7sz3a2tupsQAuY25pxW7c/uV05cxtzTit25/coCgpYaWpnBMEL5QMhLGl124FEnXATvUqtsbvUAp8TbR6Fm8Bu7pHE20ehZvAbu6XVEIDlfE20ehZvAbu6RxNtHoWbwG7ul1RCA5XxNtHoWbwG7ukcTbR6Fm8Bu7pdUQgMrBiOSKw6aOVjmPHBL2uBaRfI85itObvC/YnuF6XmbvC/YnuEByRCEIC3BZdo1MQmp6aSWM33Pa0kG7Icqk4h2x0FN0hTpghpFDspN+VtIDmPEO2OgpukKDYdsAX8JTdIV05CA5NNTz07sSeJ8Tude0tO45RrrNRTU9VEYaiNssbs7XC8JBwksHiVO2WC91HMeQJyljucJ7hAYidsDrZdURmzah18kIxoHHOYxnb23uOySSrNnVjqGugqm98ngm7VbmcO1CA6hUsc+nlY0XucxwaNci5c+41Lf6F8KRdeuighwBGUHKChAc641Lf6F8KRdejjUt/oXwpF166KhAc1qsHbYpIH1NRT4kMeV7seM3Xm7M1xKzF0nCbSKr2Ld+1c2QAtaPBi3JY2Sx017JGhzTwSMXhwvGd6yV1WzdLqXaY96EAhcalv8AQvhSLr0calv9C+FIuvXRUIDn1NgtbrKiJ7qW5rXtLjwSPMDfz63+JNoeoXzJvXJiQgP/0n9ULYs/hynxmDR48rNcarVfQsNMo0iosUw0yjSKixRGIINxyEZwvi3Ldsy4mtgGQ95mjfd2sNQtsKyrykLbKsq8oK7RWvUWfFKI2cGBBLIybrn81UkLDLSsqioGWlZV9DImltC2K69+NPUynFawanYQNQBOlgYMwWaG1FRdLWkZ87Y9ZmvrqpYFRR0lTJwSNrHz3Dg+qOwnmA/1poVzDaNo+mulrDaNI+gIQheI8QIQhACCAQQReDkIKEIDAtSw8TGqKMXtzviGprt7pZ1JbEllgvccaDloyc57Drprq6uno6d9TUvDImC8k9wNdc1te0eKNZJO1nAoieQjHcnXK0q408jTKwMc1K408jTKwMcjtK0Ki0qt9VOeSdka3UY0ZmjslVQhbjaCsUFFNX1cdLAL3yG6/UaNVx1gFC1rnuDGAuc4gNaMpJOYBdCwbsIWVTcEmANZMBwQ58RucMB7nXQGlQ0UNBSR0kAujjF15zk6rjrkqdCEAIQhACSMOtMafafEnJ3SRh1pjT7T4k5ALK3sDdO27W/uFgrewN07btb+4QD+hCEByJCEICR0ErImTOaRHLfiP1CWm4jtFGnWwrNgtPBjhWbJfI8xv1WPGZwSjWUk9FUyUtQ3FkjNx5h5hGsUBYse1Z7KrG1EeVh5GWPUezu+Yuk0tVDV08dTA7HikGM09Q64XJ1u4MW6bNqOF6h3lDmPJevbs2P2XNQHQFkYV6QVXvX4dYtcEEAg3g5QQsjCvSCq96/DrEBzlCEIDqtm6XUu0x70Kwq9m6XUu0x70KwgBCEIAXPcL9PZtjHvAuhLnuF+ns2xj3gQGImbAXTGo2nxJqWUzYC6Y1G0+JNQDuhCEAIQhAZGFekFV71+HWLnK6NhXpBVe9fh1i5ygBdbh7ws2I7hckT5HhpY7Y2tLZrwADyA1BskAwoS/wAetj87N0g65HHrY/OzdIOuQDAhL/HrY/OzdIOuRx62Pzs3SDrkAwIS/wAetj87N0g65XbLwgobVmfDSiQPY3HOO0AXXgahPNQGmlrDrS6n27xFyZUtYdaXU+3eIuQCOrNm6Y0u3R74KsrNm6Y0u3R74IDqiEIQAhCEAJGw4ia21IpGi4yQjG1yHOF+4nlc5wntBlfa0j4jjRQgRRuGqG3knpiUBkLbwQJFuQgarZAelJWImHAqEyWuZLskMTnX67iG9VAPi53hVWmrtiVoN8dPoLBrt83fMr10OR4jY6R3m1gLj2QF65NLI6WR8rze57i5x1ybygPC1cHbKFqWi2OQeUeIcEm1wMze3FZSfcC6QQ2U6oI5OpeTf2FnIAbt6AYGta1oa0ANAuAGQABCEIAQhCAEIQgBCEIAXMbc04rduf3K6cuY25pxW7c/uUBQTrgJ3qVW2N3qSkx4MW9Q2VBPHVB5dI8ObiNByAXapCAekJf49bH52bpB1yOPWx+dm6QdcgGBCX+PWx+dm6Qdcjj1sfnZukHXIBgQl/j1sfnZukHXI49bH52bpB1yAYF5m7wv2J7hel5m7wv2J7hAckQhCA6HghpFDspN+VtLFwQ0ih2Um/K2kAIQhACzMJaZtRYtU1wvMbeCtPMMfJdwtNZeE1S2msWpLjllbwJg5pfk7i8oDmyEIQHUrIkMtl0chyl0Ed518UXq2qtlxGGzaSIi5zIYw4a4aL/Bq0gBCEIDLwm0iq9i3ftXNl0nCbSKr2Ld+1c2QAuq2bpdS7THvQuVLqtm6XUu0x70ICwhCEAIQhAf/9N/QhCACARccoOcJTtmlp6OsbHFI3RQXthv5JoHU5i3LateGyaQzPudK7kYYued3Q1VzmoqqmqqnVMry+d7r8bVv1AOovA6MI2jyw4ingdGEbR7cFNxCsyWZXU1JDPUtAL2gvDeUcdRyrKJplWVeUjaZVlXlBbNk2yYsWmqjfFmZIc7dY6yxkLLLSsq+gZaVlX0HoEEXjKDmKEsWXbElIRFNe+n1OazstbWTLFLHNGJInB7HZnBWMOiNpTIcYsYdEbSmQ4x6QhC8Z4wUFdXU1BTuqap+JG3JzS4nM1o1Sq9rW1R2TDjznGlcNDhb5ueeoNdc+tS1au1Kjg1S7IMkcY82MGsO5QE1tW5U2vNe/kKdhPAoRmGu7muWYhCAF9Qt2mweqqekZaNSy4OPIxnzcwHza5w11hpqBZVYbxhpqBZVYbxrYI2HHGwWnUXOnN4ij9Q9Ql3Yj4IeCaUo2baElDNjC90TskjOaOaNcJsikZLG2SM4zHC9pHMXgc3RG0jKkNDwObojaRlSGh6QhC2GwEIQgBJGHWmNPtPiTk7pIw60xp9p8ScgFlb2Bunbdrf3CwVvYG6dt2t/cIB/QhCA5EhCEB0DA3SRu2P7le8JbCFqU3BYQOHIRoZ59ucsPUXjA3SRu2P7lbqA5GQWktcCHA3EHIQQvib8L7B83WrSt9tLB4cHV3ealBAOGCNvYwbZdW7KMlM86o9Qz1NzmLWwr0gqvevw6xc6a5zXBzSQ4G8EZCCE1zW6LUwXq4piBWQiLgg59vBWAPHVQCmhCEB1WzdLqXaY96FYVezdLqXaY96FYQAhCEALnuF+ns2xj3gXQlz3C/T2bYx7wIDETNgLpjUbT4k1LKZsBdMajafEmoB3QhCAEIQgMjCvSCq96/DrFzldGwr0gqvevw6xc5QAhC0Rg/bRAIo5CDlGQd2gM5C0uN62+g5Nwd2jjetvoOTcHdoDNQtLjetvoOTcHdo43rb6Dk3B3aAzUzYC6Y1G0+JNWXxvW30HJuDu1v4IWXaFFXTSVUDoWOixWl2qcZpuQDYlrDrS6n27xFyZUtYdaXU+3eIuQCOpqSVsNXBM+/EjkY912e5rgSoUIB949bH52bpB1yOPWx+dm6QdckJCAfePWx+dm6QdcvjsN7IAvaydx1BitHcvSGhAMNr4XVddG6npmcLQOyPIN8jhzL8lw7JLyEIAT7gbZrqWz3VUjbpKshzb8/A2+bd28ncWLg9gxLWvZV1rTHSDK1hyOl7TndfcT0AAAALgMgAQFa03Ylm1budgkOTWYVytdXrWGSiqIxnfE9o7VpC5QgBdNwfYGWLRgasQd03JdVcyXSMF5RLYdKRnYHMI12uI7hAaqEIQAhCEAIQhACEIQAuY25pxW7c/uV05cxtzTit25/coCghCtUlmV9a1zqSB0zWG5xbqFAVULS43rb6Dk3B3aON62+g5Nwd2gM1C0uN62+g5Nwd2jjetvoOTcHdoDNQtLjetvoOTcHdo43rb6Dk3B3aA6WvM3eF+xPcL0vM3eF+xPcIDkiEIQHQ8ENIodlJvytpcpjrayFgZFPJGwZmte5oy6wK9cUrR6Km8CO7tAdUQuV8UrR6Km8CO7tHFK0eipvAju7QHTqqtpaKIy1UrYmDVccp7IZz2iQcIrdda1Q1sYLKSG/gbTncTne5ZD5JJHY8ji9x5ZxJO6V5QArtkULrQtGClAva5wMmsxuV3glTAJNwzp9wUsR1n05qqluLVTi7FOeOPPi9mc5QG+hCEAIQhAZeE2kVXsW79q5suk4TaRVexbv2rmyAF1WzdLqXaY96FypdVs3S6l2mPehAWEIQgBCEID//1H9RVVTDSU8lTO7FiiGM49Qa5UqR8MLZNTU8T4HaBTnRSOXk5nbe5QGPa1qT2pWOqZcjc0UeoxmoO7WxgdY4qqg2hO2+GnN0QOZ0me/tvcpcYx0j2xsF7nkNaOaTkC6lZ1EygooaRmaJoBPNccrj2pQFhzWvaWPAc1wuIOYhLVq2O+lJmgBdTnONVnZ6yZkEAi45Qc4Xgbc0bR5dcU8DbCNo8uuKIqFuWpYZbfPRi9ud0IzjXb3Sw1G2wrKvKRtMKyrygrVFaFRRPxojew+boz5tcqq8SzxQtxpHXcwap7JYZffSBh5QMvvpAw8oOdDaNPWsvjOLIPN0Z83Duwse3MLYKPGp6C6epzOkzxsPiR/prJQqbRllvbHfGw5Mnm4g80qmrmIKBp6GWsQT1PQyWoqJ6qZ09Q8ySvN7nuylRIQvEeIF9AJIAF5OQAL3BBNUzNggYZJXm5rGi8lPeD+DEVnBtTVXS1pyjVbFrN5p19zXAq4N4LCDFrrRbfNnip3C8M7E/sWtqdnmZ3sZIx0bxjMcLnA6oK+oQCdaFG6jqXQnK3Ow81pzK5YlpcLScLzHQZDyJPKOPUK0cIKUS0gnA5OE3nYuyFLKjaRXN0pklJBG0iubpTJKSB6Qsyw6/hmDgMhvmhGfVczUPaLTVbLSNIipFK2WkaRFSKCEIWTIJIw60xp9p8ScndJGHWmNPtPiTkAsrewN07btb+4WCt7A3Ttu1v7hAP6EIQHIkIQgOgYG6SN2x/crdWFgbpI3bH9yt1ABAcC1wBaRcQcoIK57hLYZsup4LCDwnMTiHnHZyw9RdCUNZRwVtNJS1DcaOQXHmjmEa4QHKF9vI7XOrdq2bPZlY+lmy3ZY36j2HM4KmgBCEIDqtm6XUu0x70Kwq9m6XUu0x70KwgBCEIAXPcL9PZtjHvAuhLnuF+ns2xj3gQGImbAXTGo2nxJqWUzYC6Y1G0+JNQDuhCEAIQhAZGFekFV71+HWLnK6NhXpBVe9fh1i5ygBdbh7ws2I7hckXW4e8LNiO4QHpCEIAQhCAEIQgBLWHWl1Pt3iLkypaw60up9u8RcgEde443yyMijF73uDWjNeXG4Z14VmzdMaXbo98EBf41Lf6F8KRdejjUt/oXwpF166KhAcmqKeammfBOwxyxm5zTnBUa6FhJYDbTg4PAAK2Icic3BG84eoufvY5jix4LXtJDmnIQRnBQEtIymkqY2VUhigcbnyNGMW69yf7NwasejxZo2cMPuBbLKQ/PqtA5HwS5ymjBXCLhZzbOrXaA43QyHvmTyp7CfBIB1QhCAFyu0aY0ldUUxF3ApHNGxB5E7i6oknDazzFWR17ByE4DJD6+MGTdb3CAWE34DV4uns55y38Gi1+VeO48GlBTUlVNR1MdVAcWWI4zT3IOsUB1dCpWTatNalK2eEgPGSWK/kmO5h6hV1ACEIQAhCEAIVSltWz6uolpaeZsksPm4DV12nVu1lbQAuY25pxW7c/uV05cxtzTit25/coCgnXATvUqtsbvUlJ1wE71KrbG71ANCEIQAhCEAIQhAC8zd4X7E9wvS8zd4X7E9wgOSIQhACE64N2HZVZZEVRU04klc54LiXDM4gZiFqcbNhdCN6Z/XIDmyF0njZsLoRvTP65HGzYXQjemf1yA5srVHZtdXvxKSF0vNcByI7NxyBdEisGxoSCyjivGYubj7+9Xmta1oa0BrRkAGQBAL9hYKQ0Dm1VYRNVNysaPNkZ5ovznXTChCAEIQgBCEIDLwm0iq9i3ftXNl0nCbSKr2Ld+1c2QAuq2bpdS7THvQuVLqtm6XUu0x70ICwhCEAIQhAf//VbcILT4mWbJM06O/Q4R2J2r2gyrmpJJJJvJyklMGGdeai0xStOh0rbu3v5J3grgl5AX7CDHWzRB+bgzD2oN7fBrpy5Ix7o3tewlr2kOa4ZwRlBTvZuGdDLE1loXwTgXOeGl0btcYt5G4gGRCyzhNYQF5q23azXk7gaqFThvZkYIp4pZ3DMSAxp7U3n5igGNYlvUtnRxmplmZSynLc7vp20ZSeyCXK7DK1akFsGLSxm/zYMZ9x5r3dQBYcssszzJK90kjsrnuJc49mSsNMo0jyoYaZRpHlQvT2ocrYBd2N3UCoPe97i55LnHVK8oWGWGWYSGGWGWYSAhC+rxHiPis0VFJWTNjaRG0m50r8jG9mpqWzXPufPyLec1T2fMWmxjWNDWANaMwC0ujuiUxmnl4Q0tu6JTGaavCDTYtjUNmQA010srxydQbiX9ldmbrLSSXT1dTTOxoJHM5oGY9mDkWpT4SStuFREH9iYcU7hvRmVDKw6dDLuysOnRgQs6K3rOf5uc6M8xzT4jepTbFmgX8HHaBx6i2QbGDJuJsg2MGTcSauDTRVAd5t4G+/pSktbFq222pjNPTAiN3m95yEjmALHUru2jTSPU14mdm0aaR6mvE9HUvpKlk7eVPJDmtOcJyY9sjGyMN7XAFp5oKRky4PVJlpHQOPJQnJsXZR4O9eKU7TyqzHPFKdp5VZjmqhCFUUgkjDrTGn2nxJyd0kYdaY0+0+JOQCyt7A3Ttu1v7hYK3sDdO27W/uEA/oQhAciQhCA6BgbpI3bH9yt1YWBukjdsf3K3UAIQhAZtu2PFa1GY8jaiO90EnMdzDrFc3mhkglfDK0skjJa9pzghdaS5hZYPDkRtClb5SYhorRnkYOq3uO0QCKhCEB1WzdLqXaY96FYVezdLqXaY96FYQAhCEALnuF+ns2xj3gXQlz3C/T2bYx7wIDETNgLpjUbT4k1LKZsBdMajafEmoB3QhCAEIQgMjCvSCq96/DrFzldGwr0gqvevw6xc5QAm5mHeKxreEb8UAX8G5nvWlFCAb+P3vw8LeK0cfvfh4W8VpQQgG/j978PC3itHH734eFvFaUEIBv4/e/Dwt4rU9Dhpw5WQ0vCeJwZ7WY/Bb7sY3X3cDCSVfsPTii25ncoDpyWsOtLqfbvEXJlS1h1pdT7d4i5AI6s2bpjS7dHvgqys2bpjS7dHvggOqIQhACWcKsHeGmutCjb5SGi+aMd9Gjlh2IeDTMhAciQmvCvB3gRdadE3QzlqIhyp9RBrc1KiAcsFcIuCBlm1ruTGSnldyw5xx5vMTWuRgkEEG4jKCE94MYQivjFHVu8pkY5Fx76tGrshq7qAYVVtOz4rSopKSXIHjkXc64ebXK0hAcoqqWejqJKaobiSxm5w6o1ioV0a37AitaIPYRHVxjQ5NRw5x+t3C5/VUlRRzugqYzHK3OD3I5oQHqjraqhmE9LIY5BqjMRzCMxCbLPw4geAy0IjG/Vki5Jh7aco8GktCA6bDhBYswvZWRC/n3cD8OYqlda9ktF5rYLs40VndrlqEB0KrwusanB4HI6oeOVjabumdcEsWthVaFotMMflGpzkLGG9zh2J+TwSxEICWnqJqaZk8DzHLGb2uGcFdBsC34bWhxXXR1kY0SPUI59mt3C5ymXBjB6slnitGYupoYzjR3ZHydlzGnwaAeFzG3NOK3bn9yunLmNuacVu3P7lAUFt2FhFxHhli4X4PwVwdfj4l1wu5xyxEIBv4/e/Dwt4rRx+9+HhbxWlBCAb+P3vw8LeK0cfvfh4W8VpQQgG/j978PC3itHH734eFvFaUEIDqVk1/FKz4q3gfAuC43IX412K5zM9w5iszd4X7E9wsrBTSCl97PDr1qzd4X7E9wgOSIQhAdDwQ0ih2Um/K2li4IaRQ7KTflbSAEIQgBCEIAQhCAEIQgBCEIDLwm0iq9i3ftXNl0nCbSKr2Ld+1c2QAuq2bpdS7THvQuVLqtm6XUu0x70ICwhCEAIQhAf//Wx6yc1NXNUE3mWRz+mJKhXp7HRvdG4XOYS1w1xkXlACEIQAhCEAIQhACFaobMrrQfiUkLpLsjnDI1uyccgTbZWBdNBiy2i7hiQZeBNvEY7M5C7wXaoBXs2xrQtN11LGTGPN0ruRYO3ap1gtBtlGz34kzCJhyzhvdRPrGMjY2ONoYxoua1ouAA1AAvM9PDUMMczA9p1D1F4HRhWkeRXjwOjCtI8ivCQhbdbg69t76N2MPUN2Q9o5Y8sUsLyyVhY8ajhco2mGmYaEjTDTMNDwhCF4TwAhCEAIQhAC1MHpSyvLNSRhHajkuostaNgsLrSjI5QOJ3MXqrxucvZknjc5ezJGlCEK4uBKmFtkWjX1sMlJAZWNixXEFouOM43ckQmtCA5vxs270I7pmdctfBixbUorVbPVU5jiDHAuJacpGTMSnFCAEIQgOb8bNu9CO6ZnXI42bd6Ed0zOuXSEIDJwYo6mispsFVGY5Q9xLSQchOTNetZCEAIQhACEIQCbhDgrUGr4ZsyLHjmJMkTSBiP1SL7shWTxs270I7pmdcukIQENDG+Kip43jFeyJjXDmENAIUyEIAQhCAEl4SWHatZa8tRTU5kic1gDgWjM0A5ynRCA5vxs270I7pmdct3BKyLRoK2aSrgMTHRYrSS03nGabuRJTWhACEIQAhCEBm4RUs9XY9RT0zDJM/ExWC4X3SNcc+sEk8bNu9CO6ZnXLpCEBzfjZt3oR3TM65HGzbvQjumZ1y6QhAc342bd6Ed0zOuRxs270I7pmdcukIQHN+Nm3ehHdMzrkcbNu9CO6ZnXLpCEBzfjZt3oR3TM65W7JwftiC06WaalcyOOVrnuvbkAOU5HJ9QgBYWFtn1lfRQx0kRle2XGcAQLhiuHLELdQgOb8bNu9CO6ZnXKehwctqKtp5H0rmsZKxzjjNyAOBPLLoKEAIQhACEIQAQCCCLwchBSTbeCVVHVcEsyLgtPLeeBggGM8zkiMnMTshAc342bd6Ed0zOuXqPB3CCKRssdM9kjCHNcHMvBGY+bl0ZCAqWXNXTUbHV8PAakci9t4IddywxearaEIAVavs2itGLgVXEJAPNrszmnsLhlCsoQCXX4D1LCX2fKJWakcnIv7LG82nwSwqmyLTpSeD0srAM7sUlvTNvC6ihAcjIINxzr4utvhik7yMa/ZAHuV4FJSA3iCO/YN7pAcrihmmdiwxukdzGAuPglq0WCls1RBdFwvGc75ji/McrvBLogAaLgLgNQIQGFZWCVn0JEs/lKnGUOeLmNPYWd2t1CEAJCtbB+2J7TqpoaVz45JXOY69uUE5Dlcn1CA5vxs270I7pmdcjjZt3oR3TM65dIQgOb8bNu9CO6ZnXI42bd6Ed0zOuXSEIDm/GzbvQjumZ1yONm3ehHdMzrl0hCA5vxs270I7pmdcjjZt3oR3TM65dIQgM3B2lnpLHp6epYY5mY+Mw3G6+Rzhm1itCUF0bwMpLSBuL0hAc342bd6Ed0zOuRxs270I7pmdcukIQGXg1SVFHZEVPUsMcrXPJabjncSM161EIQAhCEAIQhACEIQAhCEAIQhAULep5qqyKmnp248r2gNaLhfc5p1UjcbNu9CO6ZnXLpCEBzfjZt3oR3TM65dCoY3xUVPG8Yr2RMa4cwhoBCmQgBCEIAQhCA//15cLLDlpap9oQNxqWc40l3fOQ579Zx1UuLrrmtc0tcA5pFxByghYdbgfZFS4vja6mecuhHkb9i4EblyA58hODsAmE8hXEDmGK/xML3HgHAO8tY93NxWBvcucgExemMe9wYxpc45A0C8ntE/0+B1iw3F7Hzkeojz3DMVa1NRUlI3FpoWQjVxGgE9mQgEKhwUtiruLouFozy03InpMrvBJjoMDbMprnVJdVydi5FnSt6pTAhAeY4o4mCOJjY425GsaA1o7IBekIQAhCEAKOangqGYkzA9uuM3ZKRCAxarByN17qWTEPOPyjdzrJqLMraa8yRHFHLt5Ju6E4IWppwYWFTsg1NODCwqdkCKhOc9BR1HeWFric7rrnbouKpSYO0LsrHPjPMBBHgwtKynaiKimpZTtRFRRZQt52DLeVqCOzZf4kF6ZgzGDyc7nDsLQ3uSV4Z4ukbhTwzxdI3Ci/nyBM1h2c6ljdPMLpZRcGnO1uv2as0llUVIQ6NmNIMz38ke01Ara3OTjArBNQzc5uMCsE1DBCELebgQhCAEIQgBCEIAQhCAEIQgBCEIAQhCAEIQgBCEIAQhCAEIQgBCEIAQhCAEIQgBCEIAQhCAEIQgBCEIAQhCAEIQgBCEIAQhCAEIQgBCEIAQhCAEIQgBCEIAQhCAEIQgBCEIAQhCAEIQgBCEIAQhCAEIQgBCEIAQhCAEIQgBCEIAQhCAEIQgBCEIAQhCAEIQgBCEIAQhCAEIQgBCEID//2Q==;" parent="1" vertex="1">
          <mxGeometry x="100" y="90" width="472.62" height="70" as="geometry" />
        </mxCell>
        <mxCell id="tw3CjWlPFAVfij_czGE9-8" value="Team name" style="text;html=1;align=center;verticalAlign=middle;resizable=0;points=[];autosize=1;strokeColor=none;fillColor=none;" parent="1" vertex="1">
          <mxGeometry x="587" y="440" width="90" height="30" as="geometry" />
        </mxCell>
        <mxCell id="tw3CjWlPFAVfij_czGE9-9" value="&lt;div&gt;- Deploy Foreign principal&lt;/div&gt;&lt;div&gt;- Deploy Azure Lighthouse&lt;div&gt;- Deploy Azure Policy&lt;/div&gt;&lt;div style=&quot;&quot;&gt;- Deploy Azure Budget alert&lt;/div&gt;&lt;div style=&quot;&quot;&gt;&lt;span style=&quot;background-color: initial;&quot;&gt;- Deploy Defender for Cloud&lt;/span&gt;&lt;br&gt;&lt;/div&gt;&lt;/div&gt;" style="text;html=1;align=left;verticalAlign=middle;resizable=0;points=[];autosize=1;strokeColor=none;fillColor=none;" parent="1" vertex="1">
          <mxGeometry x="938.75" y="468.5" width="170" height="90" as="geometry" />
        </mxCell>
        <mxCell id="XdyKfdpSOrHMwj-g5sN_-50" value="Onboarding post-validation" style="image;aspect=fixed;html=1;points=[];align=center;fontSize=12;image=img/lib/azure2/compute/Function_Apps.svg;" parent="1" vertex="1">
          <mxGeometry x="1455" y="567.5" width="68" height="60" as="geometry" />
        </mxCell>
        <mxCell id="9itBcNqf7N-kZ1hIb0Wm-10" style="edgeStyle=orthogonalEdgeStyle;rounded=0;orthogonalLoop=1;jettySize=auto;html=1;strokeWidth=3;strokeColor=#CCCCCC;" parent="1" source="9itBcNqf7N-kZ1hIb0Wm-1" target="sJAkSyZmvU-YgBx9wPWd-7" edge="1">
          <mxGeometry relative="1" as="geometry" />
        </mxCell>
        <mxCell id="9itBcNqf7N-kZ1hIb0Wm-11" value="&lt;font style=&quot;font-size: 14px;&quot;&gt;GET&lt;/font&gt;" style="edgeLabel;html=1;align=center;verticalAlign=middle;resizable=0;points=[];" parent="9itBcNqf7N-kZ1hIb0Wm-10" vertex="1" connectable="0">
          <mxGeometry x="-0.2491" relative="1" as="geometry">
            <mxPoint as="offset" />
          </mxGeometry>
        </mxCell>
        <mxCell id="9itBcNqf7N-kZ1hIb0Wm-1" value="App reg clean up" style="image;aspect=fixed;html=1;points=[];align=center;fontSize=12;image=img/lib/azure2/compute/Function_Apps.svg;" parent="1" vertex="1">
          <mxGeometry x="1455" y="326.5" width="68" height="60" as="geometry" />
        </mxCell>
        <mxCell id="9itBcNqf7N-kZ1hIb0Wm-8" style="edgeStyle=orthogonalEdgeStyle;rounded=0;orthogonalLoop=1;jettySize=auto;html=1;strokeWidth=3;strokeColor=#CCCCCC;" parent="1" source="9itBcNqf7N-kZ1hIb0Wm-2" target="9itBcNqf7N-kZ1hIb0Wm-1" edge="1">
          <mxGeometry relative="1" as="geometry" />
        </mxCell>
        <mxCell id="9itBcNqf7N-kZ1hIb0Wm-2" value="Timer&lt;div&gt;Every night&lt;/div&gt;" style="html=1;verticalLabelPosition=bottom;align=center;labelBackgroundColor=#ffffff;verticalAlign=top;strokeWidth=2;strokeColor=#000000;shadow=0;dashed=0;shape=mxgraph.ios7.icons.gauge;" parent="1" vertex="1">
          <mxGeometry x="1841.4" y="330.75" width="55.2" height="51.5" as="geometry" />
        </mxCell>
        <mxCell id="dqcT2QglrnnVANuXZ98A-2" style="edgeStyle=orthogonalEdgeStyle;rounded=0;orthogonalLoop=1;jettySize=auto;html=1;strokeColor=#000000;strokeWidth=3;entryX=0.517;entryY=-0.069;entryDx=0;entryDy=0;entryPerimeter=0;" parent="1" source="dqcT2QglrnnVANuXZ98A-1" target="dqcT2QglrnnVANuXZ98A-3" edge="1">
          <mxGeometry relative="1" as="geometry">
            <mxPoint x="1022" y="1120" as="targetPoint" />
          </mxGeometry>
        </mxCell>
        <mxCell id="dqcT2QglrnnVANuXZ98A-1" value="Onboarding LogIt" style="image;aspect=fixed;html=1;points=[];align=center;fontSize=12;image=img/lib/azure2/compute/Function_Apps.svg;" parent="1" vertex="1">
          <mxGeometry x="989.75" y="770" width="68" height="60" as="geometry" />
        </mxCell>
        <mxCell id="dqcT2QglrnnVANuXZ98A-3" value="Onboarding" style="image;sketch=0;aspect=fixed;html=1;points=[];align=center;fontSize=12;image=img/lib/mscae/Table_Storage.svg;" parent="1" vertex="1">
          <mxGeometry x="998.75" y="970" width="50" height="48" as="geometry" />
        </mxCell>
        <mxCell id="dqcT2QglrnnVANuXZ98A-4" value="" style="image;sketch=0;aspect=fixed;html=1;points=[];align=center;fontSize=12;image=img/lib/mscae/Managed_Identities.svg;" parent="1" vertex="1">
          <mxGeometry x="1018.35" y="890" width="30.4" height="40" as="geometry" />
        </mxCell>
        <mxCell id="CkvI0cMK4T_Tbto0kPHf-2" value="" style="image;aspect=fixed;html=1;points=[];align=center;fontSize=12;image=img/lib/azure2/networking/Virtual_Networks.svg;" parent="1" vertex="1">
          <mxGeometry x="200" y="282" width="67" height="40" as="geometry" />
        </mxCell>
        <mxCell id="CkvI0cMK4T_Tbto0kPHf-8" style="edgeStyle=orthogonalEdgeStyle;rounded=0;orthogonalLoop=1;jettySize=auto;html=1;strokeColor=#FF9999;strokeWidth=3;entryX=0.05;entryY=0.511;entryDx=0;entryDy=0;entryPerimeter=0;" parent="1" source="CkvI0cMK4T_Tbto0kPHf-3" target="CkvI0cMK4T_Tbto0kPHf-9" edge="1">
          <mxGeometry relative="1" as="geometry">
            <mxPoint x="920" y="1440" as="targetPoint" />
          </mxGeometry>
        </mxCell>
        <mxCell id="CkvI0cMK4T_Tbto0kPHf-28" value="&lt;font style=&quot;font-size: 14px;&quot;&gt;POST&lt;/font&gt;" style="edgeLabel;html=1;align=center;verticalAlign=middle;resizable=0;points=[];" parent="CkvI0cMK4T_Tbto0kPHf-8" vertex="1" connectable="0">
          <mxGeometry x="0.0735" y="1" relative="1" as="geometry">
            <mxPoint as="offset" />
          </mxGeometry>
        </mxCell>
        <mxCell id="p7vGfhE5Q7DBioOwFMY9-1" style="edgeStyle=orthogonalEdgeStyle;rounded=0;orthogonalLoop=1;jettySize=auto;html=1;entryX=0.5;entryY=0;entryDx=0;entryDy=0;strokeWidth=3;strokeColor=#FF9999;" parent="1" source="CkvI0cMK4T_Tbto0kPHf-3" target="CkvI0cMK4T_Tbto0kPHf-22" edge="1">
          <mxGeometry relative="1" as="geometry" />
        </mxCell>
        <mxCell id="CkvI0cMK4T_Tbto0kPHf-3" value="Onboard AutoMonX monitoring" style="image;aspect=fixed;html=1;points=[];align=center;fontSize=12;image=img/lib/azure2/compute/Function_Apps.svg;" parent="1" vertex="1">
          <mxGeometry x="555" y="1410" width="68" height="60" as="geometry" />
        </mxCell>
        <mxCell id="CkvI0cMK4T_Tbto0kPHf-25" style="edgeStyle=orthogonalEdgeStyle;rounded=0;orthogonalLoop=1;jettySize=auto;html=1;entryX=0.5;entryY=0;entryDx=0;entryDy=0;strokeWidth=3;strokeColor=#FF9999;" parent="1" source="CkvI0cMK4T_Tbto0kPHf-9" target="CkvI0cMK4T_Tbto0kPHf-22" edge="1">
          <mxGeometry relative="1" as="geometry" />
        </mxCell>
        <mxCell id="CkvI0cMK4T_Tbto0kPHf-9" value="AutoMonX discovery" style="image;aspect=fixed;html=1;points=[];align=center;fontSize=12;image=img/lib/azure2/compute/Function_Apps.svg;" parent="1" vertex="1">
          <mxGeometry x="989.75" y="1410" width="68" height="60" as="geometry" />
        </mxCell>
        <mxCell id="CkvI0cMK4T_Tbto0kPHf-10" value="- Check if tenant exist&lt;div&gt;&lt;div&gt;&lt;span style=&quot;white-space: pre;&quot;&gt;&#x9;&lt;/span&gt;- If exits&lt;/div&gt;&lt;div&gt;&lt;span style=&quot;white-space: pre;&quot;&gt;&#x9;&lt;/span&gt;&lt;span style=&quot;white-space: pre;&quot;&gt;&#x9;&lt;/span&gt;- renew app reg&lt;/div&gt;&lt;div&gt;&lt;span style=&quot;white-space: pre;&quot;&gt;&#x9;&lt;/span&gt;&lt;span style=&quot;white-space: pre;&quot;&gt;&#x9;&lt;/span&gt;- start discovery&lt;br&gt;&lt;/div&gt;&lt;div&gt;&lt;br&gt;&lt;/div&gt;&lt;div&gt;&lt;span style=&quot;white-space: pre;&quot;&gt;&#x9;&lt;/span&gt;- if not exits&lt;br&gt;&lt;/div&gt;&lt;div&gt;&lt;span style=&quot;white-space: pre;&quot;&gt;&#x9;&lt;/span&gt;&lt;span style=&quot;white-space: pre;&quot;&gt;&#x9;&lt;/span&gt;- check available probes&lt;br&gt;&lt;/div&gt;&lt;div&gt;&lt;span style=&quot;white-space: pre;&quot;&gt;&#x9;&lt;/span&gt;&lt;span style=&quot;white-space: pre;&quot;&gt;&#x9;&lt;/span&gt;- create PRTG Group&lt;br&gt;&lt;/div&gt;&lt;div&gt;&lt;span style=&quot;white-space: pre;&quot;&gt;&#x9;&lt;/span&gt;&lt;span style=&quot;white-space: pre;&quot;&gt;&#x9;&lt;/span&gt;- start AutoMonX onboarding&lt;br&gt;&lt;/div&gt;&lt;div&gt;&lt;span style=&quot;white-space: pre;&quot;&gt;&#x9;&lt;/span&gt;&lt;span style=&quot;white-space: pre;&quot;&gt;&#x9;&lt;/span&gt;- start discovery&lt;br&gt;&lt;/div&gt;&lt;div&gt;&lt;br&gt;&lt;/div&gt;&lt;/div&gt;" style="text;html=1;align=left;verticalAlign=middle;resizable=0;points=[];autosize=1;strokeColor=none;fillColor=none;" parent="1" vertex="1">
          <mxGeometry x="290" y="1390" width="230" height="170" as="geometry" />
        </mxCell>
        <mxCell id="CkvI0cMK4T_Tbto0kPHf-18" value="&lt;span style=&quot;font-size: 17px;&quot;&gt;&lt;b&gt;Intercept Azure tenant&lt;/b&gt;&lt;/span&gt;" style="text;html=1;align=left;verticalAlign=middle;resizable=0;points=[];autosize=1;strokeColor=none;fillColor=none;" parent="1" vertex="1">
          <mxGeometry x="100" y="1200" width="200" height="30" as="geometry" />
        </mxCell>
        <mxCell id="CkvI0cMK4T_Tbto0kPHf-19" value="" style="image;aspect=fixed;html=1;points=[];align=center;fontSize=12;image=img/lib/azure2/networking/Virtual_Networks.svg;" parent="1" vertex="1">
          <mxGeometry x="200" y="1282" width="67" height="40" as="geometry" />
        </mxCell>
        <mxCell id="CkvI0cMK4T_Tbto0kPHf-20" style="edgeStyle=orthogonalEdgeStyle;rounded=0;orthogonalLoop=1;jettySize=auto;html=1;startArrow=oval;startFill=1;strokeColor=#FF9999;strokeWidth=3;endArrow=oval;endFill=1;dashed=1;dashPattern=12 12;" parent="1" source="CkvI0cMK4T_Tbto0kPHf-2" edge="1">
          <mxGeometry relative="1" as="geometry">
            <mxPoint x="200" y="1300" as="targetPoint" />
            <Array as="points">
              <mxPoint y="300" />
              <mxPoint y="1300" />
            </Array>
          </mxGeometry>
        </mxCell>
        <mxCell id="CkvI0cMK4T_Tbto0kPHf-21" value="&lt;b&gt;&lt;font style=&quot;font-size: 14px;&quot;&gt;VNET PEERING&lt;/font&gt;&lt;/b&gt;" style="edgeLabel;html=1;align=center;verticalAlign=middle;resizable=0;points=[];rotation=-90;" parent="CkvI0cMK4T_Tbto0kPHf-20" vertex="1" connectable="0">
          <mxGeometry x="0.0222" y="-1" relative="1" as="geometry">
            <mxPoint y="-11" as="offset" />
          </mxGeometry>
        </mxCell>
        <mxCell id="CkvI0cMK4T_Tbto0kPHf-30" value="" style="group" parent="1" vertex="1" connectable="0">
          <mxGeometry x="590" y="1630" width="430.25" height="150" as="geometry" />
        </mxCell>
        <mxCell id="CkvI0cMK4T_Tbto0kPHf-22" value="" style="rounded=0;whiteSpace=wrap;html=1;fillColor=none;" parent="CkvI0cMK4T_Tbto0kPHf-30" vertex="1">
          <mxGeometry x="0.25" width="430" height="150" as="geometry" />
        </mxCell>
        <mxCell id="CkvI0cMK4T_Tbto0kPHf-11" value="" style="image;aspect=fixed;html=1;points=[];align=center;fontSize=12;image=img/lib/azure2/compute/Virtual_Machine.svg;" parent="CkvI0cMK4T_Tbto0kPHf-30" vertex="1">
          <mxGeometry x="41" y="40" width="69" height="64" as="geometry" />
        </mxCell>
        <mxCell id="CkvI0cMK4T_Tbto0kPHf-12" value="" style="image;aspect=fixed;html=1;points=[];align=center;fontSize=12;image=img/lib/azure2/compute/Virtual_Machine.svg;" parent="CkvI0cMK4T_Tbto0kPHf-30" vertex="1">
          <mxGeometry x="136.5" y="40" width="69" height="64" as="geometry" />
        </mxCell>
        <mxCell id="CkvI0cMK4T_Tbto0kPHf-13" value="" style="image;aspect=fixed;html=1;points=[];align=center;fontSize=12;image=img/lib/azure2/compute/Virtual_Machine.svg;" parent="CkvI0cMK4T_Tbto0kPHf-30" vertex="1">
          <mxGeometry x="231" y="40" width="69" height="64" as="geometry" />
        </mxCell>
        <mxCell id="CkvI0cMK4T_Tbto0kPHf-14" value="" style="image;aspect=fixed;html=1;points=[];align=center;fontSize=12;image=img/lib/azure2/compute/Virtual_Machine.svg;" parent="CkvI0cMK4T_Tbto0kPHf-30" vertex="1">
          <mxGeometry x="321" y="40" width="69" height="64" as="geometry" />
        </mxCell>
        <mxCell id="CkvI0cMK4T_Tbto0kPHf-23" value="&lt;font style=&quot;font-size: 13px;&quot;&gt;&lt;b&gt;PRTG Probes&lt;/b&gt;&lt;/font&gt;" style="text;html=1;align=left;verticalAlign=middle;resizable=0;points=[];autosize=1;strokeColor=none;fillColor=none;" parent="CkvI0cMK4T_Tbto0kPHf-30" vertex="1">
          <mxGeometry width="110" height="30" as="geometry" />
        </mxCell>
        <mxCell id="XdyKfdpSOrHMwj-g5sN_-37" value="Onboarding pre-validation" style="image;aspect=fixed;html=1;points=[];align=center;fontSize=12;image=img/lib/azure2/compute/Function_Apps.svg;" parent="1" vertex="1">
          <mxGeometry x="555" y="567.5" width="68" height="60" as="geometry" />
        </mxCell>
        <mxCell id="YqvdHXF9ujpFZt-SSqEJ-1" value="" style="endArrow=classic;html=1;rounded=0;exitX=1.009;exitY=0.006;exitDx=0;exitDy=0;exitPerimeter=0;strokeWidth=3;strokeColor=#FF9999;" parent="1" source="CkvI0cMK4T_Tbto0kPHf-3" edge="1">
          <mxGeometry width="50" height="50" relative="1" as="geometry">
            <mxPoint x="-200" y="1230" as="sourcePoint" />
            <mxPoint x="970" y="850" as="targetPoint" />
          </mxGeometry>
        </mxCell>
        <mxCell id="uV-PD8PnXa-rE1P_8Z7f-2" value="&lt;font style=&quot;font-size: 14px;&quot;&gt;POST&lt;/font&gt;" style="edgeLabel;html=1;align=center;verticalAlign=middle;resizable=0;points=[];" parent="YqvdHXF9ujpFZt-SSqEJ-1" vertex="1" connectable="0">
          <mxGeometry x="-0.039" relative="1" as="geometry">
            <mxPoint x="-1" as="offset" />
          </mxGeometry>
        </mxCell>
        <mxCell id="deivHuMVzQVcQBT-Z8bi-1" value="" style="edgeStyle=orthogonalEdgeStyle;rounded=0;orthogonalLoop=1;jettySize=auto;html=1;fontSize=13;spacing=2;strokeWidth=3;endArrow=none;endFill=0;" edge="1" parent="1" source="XdyKfdpSOrHMwj-g5sN_-36" target="uV-PD8PnXa-rE1P_8Z7f-1">
          <mxGeometry relative="1" as="geometry">
            <mxPoint x="278" y="598" as="sourcePoint" />
            <mxPoint x="555" y="598" as="targetPoint" />
          </mxGeometry>
        </mxCell>
        <mxCell id="deivHuMVzQVcQBT-Z8bi-2" value="POST" style="edgeLabel;html=1;align=center;verticalAlign=middle;resizable=0;points=[];fontSize=15;" vertex="1" connectable="0" parent="deivHuMVzQVcQBT-Z8bi-1">
          <mxGeometry x="-0.1831" relative="1" as="geometry">
            <mxPoint x="14" as="offset" />
          </mxGeometry>
        </mxCell>
        <mxCell id="uV-PD8PnXa-rE1P_8Z7f-1" value="" style="image;aspect=fixed;html=1;points=[];align=center;fontSize=12;image=img/lib/azure2/networking/Private_Endpoint.svg;" parent="1" vertex="1">
          <mxGeometry x="435.73" y="579.5" width="39.27" height="36" as="geometry" />
        </mxCell>
      </root>
    </mxGraphModel>
  </diagram>
</mxfile>
